<svg width="46" height="45" viewBox="0 0 46 45" fill="none" xmlns="http://www.w3.org/2000/svg">
<path id="Icon" d="M10.5994 28.536L7.18519 31.909M6.82843 19.5402H2M7.18519 7.17359L10.5994 10.5466M19.7051 2.0498L19.7051 6.81996M32.2228 7.17359L28.8086 10.5466M43.6878 38.9686L39.9197 42.6914C39.5035 43.1026 38.8287 43.1026 38.4124 42.6914L32.4718 36.8222C32.0226 36.3785 31.2828 36.4189 30.8859 36.909L26.8906 41.8431C26.3498 42.5109 25.2714 42.2969 25.0336 41.4746L18.5916 19.1987C18.3618 18.4044 19.1052 17.6701 19.9091 17.897L42.4562 24.2615C43.2886 24.4965 43.5052 25.5619 42.8292 26.0962L37.835 30.0435C37.339 30.4355 37.298 31.1665 37.7472 31.6103L43.6878 37.4795C44.1041 37.8907 44.1041 38.5574 43.6878 38.9686Z" stroke="#FF96D3" stroke-width="3" stroke-linecap="round" stroke-linejoin="round"/>
</svg>
