<svg width="32" height="32" viewBox="0 0 32 32" fill="none" xmlns="http://www.w3.org/2000/svg">
<path fill-rule="evenodd" clip-rule="evenodd" d="M16 4.5C24.8312 4.5 28.5 7.1692 28.5 15.9999C28.5 24.8308 24.8312 24 16 24C7.16883 24 3.5 24.8308 3.5 15.9999C3.5 7.1692 7.16883 4.5 16 4.5Z" fill="white"/>
<path fill-rule="evenodd" clip-rule="evenodd" d="M16 0C24.8312 0 32 7.1692 32 15.9999C32 24.8308 24.8312 32 16 32C7.16883 32 0 24.8308 0 15.9999C0 7.1692 7.16883 0 16 0ZM14.1299 9.60387C14.1299 9.24805 13.8182 8.95897 13.4805 8.95897H10.7792C10.4156 8.95897 10.1299 9.24805 10.1299 9.60387V22.3174C10.1299 22.6735 10.4156 22.9626 10.7792 22.9626H13.4805C13.8182 22.9626 14.1299 22.6735 14.1299 22.3174V9.60387ZM22.1299 9.60387C22.1299 9.24805 21.8442 8.95897 21.4805 8.95897H18.7792C18.4156 8.95897 18.1299 9.24805 18.1299 9.60387V22.3174C18.1299 22.6735 18.4156 22.9626 18.7792 22.9626H21.4805C21.8442 22.9626 22.1299 22.6735 22.1299 22.3174V9.60387Z" fill="black"/>
</svg>
