<svg width="12" height="11" viewBox="0 0 12 11" fill="none" xmlns="http://www.w3.org/2000/svg">
<path d="M7.51777 6.28812C8.92671 4.31125 8.30897 1.95046 6.75766 0.777046C5.21626 -0.388706 2.98684 -0.230538 1.6117 1.16909C0.236564 2.56871 0.124821 4.79657 1.34541 6.33949C2.53041 7.83554 4.83823 8.40918 6.77343 7.02668C6.82975 7.07986 6.88923 7.13348 6.94555 7.19026C8.11373 8.36397 9.28206 9.53768 10.4505 10.7114C10.5168 10.7826 10.5892 10.8479 10.6668 10.9065C10.7728 10.9792 10.9014 11.0112 11.0291 10.9965C11.1568 10.9819 11.2748 10.9216 11.3616 10.8268C11.4447 10.7342 11.4934 10.6158 11.4994 10.4915C11.5054 10.3672 11.4683 10.2447 11.3945 10.1445C11.338 10.0747 11.2769 10.0087 11.2115 9.94715C10.0458 8.78154 8.87955 7.61639 7.71287 6.45169C7.65475 6.39311 7.58671 6.34535 7.51777 6.28812ZM4.40524 1.07581C5.97007 1.07355 7.24383 2.33529 7.25013 3.89173C7.25037 4.64606 6.95132 5.36967 6.41861 5.9037C5.88591 6.43773 5.16309 6.73854 4.40884 6.74009C2.87375 6.74009 1.58737 5.45402 1.58602 3.91786C1.58512 2.35241 2.84897 1.07806 4.40524 1.07581Z" fill="black"/>
</svg>
