<svg width="1440" height="548" viewBox="0 0 1440 548" fill="none" xmlns="http://www.w3.org/2000/svg">
<g clip-path="url(#clip0_315_1220)">
<path d="M1439.85 0H0.152344V548.005H1439.85V0Z" fill="black"/>
<path d="M1333.69 33.9359C1329.23 31.6332 1324.47 29.7363 1319.43 28.3066C1274.1 15.4742 1201.35 31.2152 1178.07 74.5089C1162.01 104.354 1169.6 143.736 1192.6 168.617C1214.7 192.534 1248.75 203.487 1281.34 201.288C1282.66 201.201 1283.98 201.086 1285.3 200.955C1285.62 200.921 1285.93 200.888 1286.25 200.846C1289.23 200.53 1292.21 200.098 1295.17 199.565C1296.73 199.27 1298.29 198.958 1299.85 198.612C1315.54 195.087 1330.6 188.454 1343.34 178.917C1351.09 173.131 1358 166.276 1363.68 158.386C1372.38 146.307 1377.11 132.333 1378.29 118.098C1378.4 116.779 1378.47 115.467 1378.53 114.139C1378.56 113.217 1378.59 112.286 1378.59 111.358C1378.59 109.906 1378.57 108.457 1378.5 107.004C1377.22 77.2068 1360.98 47.9994 1333.69 33.9359Z" fill="#5700FF"/>
<path d="M1198.48 170.246C1189.23 173.994 1179.44 176.755 1169.46 176.855C1159.48 176.954 1149.25 174.208 1141.51 167.92C1152.52 168.876 1163.53 164.206 1171.79 156.892C1180.05 149.578 1185.82 139.823 1190.08 129.655" fill="#5700FF"/>
<path d="M837.12 458.317C839.047 450.004 839.693 441.312 840.314 432.788C840.608 428.752 840.913 424.578 841.352 420.556C844.856 388.424 860.257 379.405 866.716 377.018C867.778 376.627 868.321 375.45 867.927 374.391C867.534 373.33 866.356 372.784 865.293 373.182C843.755 381.137 838.525 408.653 837.276 420.114C836.83 424.208 836.523 428.418 836.226 432.487C835.663 440.202 835.081 448.056 833.525 455.554L837.12 458.317Z" fill="#5700FF"/>
<path d="M429.717 545.123C433.463 512.617 462.226 490.026 494.9 487.256C541.598 483.297 584.015 524.574 630.425 518.079C661.602 513.716 685.489 488.889 705.206 464.4C724.924 439.91 744.699 413.058 773.963 401.473C812.716 386.132 858.666 403.143 887.33 433.352C915.993 463.56 930.366 504.439 940.163 544.873" stroke="white" stroke-width="2.3323" stroke-miterlimit="10" stroke-linecap="round" stroke-linejoin="round"/>
<mask id="mask0_315_1220" style="mask-type:luminance" maskUnits="userSpaceOnUse" x="791" y="0" width="649" height="549">
<path d="M1440 0H791.182V548.005H1440V0Z" fill="white"/>
</mask>
<g mask="url(#mask0_315_1220)">
<path d="M1199.41 -4.37305C1202.49 39.142 1235.07 79.4271 1276.93 88.7834C1284.78 90.5381 1293.25 91.2213 1300.63 88.0036C1308.02 84.7841 1313.83 76.6993 1312.3 68.669C1310.77 60.6387 1299.99 55.4362 1293.93 60.8056C1288.55 65.5742 1289.8 74.416 1292.6 81.0992C1298.23 94.5568 1308.34 106.024 1320.88 113.166C1337.41 122.579 1357.13 124.266 1376.05 123.388C1394.97 122.51 1413.79 119.284 1432.73 119.707C1435.72 119.774 1439.18 120.188 1440.81 122.744" stroke="#FFC410" stroke-width="2.3558" stroke-miterlimit="10" stroke-linecap="round" stroke-linejoin="round"/>
</g>
<mask id="mask1_315_1220" style="mask-type:luminance" maskUnits="userSpaceOnUse" x="791" y="0" width="649" height="549">
<path d="M1440 0H791.182V548.005H1440V0Z" fill="white"/>
</mask>
<g mask="url(#mask1_315_1220)">
<path d="M1294.1 263.394L1148.74 334.991L1146.5 326.493L1144.25 317.931L1126.3 249.844L1089.97 330.043L1013.92 285.701L1044.91 368.129L1023.06 373.894L1016.19 375.708L959.789 390.574L998.918 408.312L1039.96 426.922L959.406 525.305L1078.03 471.994L1079.36 477.037L1081.07 483.552L1103.64 569.217L1108.78 588.71L1136.81 476.944L1160.77 486.566L1171.83 491.006L1206.74 505.031L1181.87 438.862L1297.4 417.923L1186.81 380.062L1294.1 263.394ZM1097.63 463.669C1098.14 464.479 1098.62 465.301 1099.1 466.13C1099.53 466.846 1099.94 467.572 1100.34 468.304C1099.47 466.736 1098.57 465.187 1097.62 463.659L1097.63 463.669Z" fill="#00DDB5"/>
</g>
<mask id="mask2_315_1220" style="mask-type:luminance" maskUnits="userSpaceOnUse" x="791" y="0" width="649" height="549">
<path d="M1440 0H791.182V548.005H1440V0Z" fill="white"/>
</mask>
<g mask="url(#mask2_315_1220)">
<path d="M1209.3 587.698C1208.98 551.904 1208.53 515.378 1196.88 481.535C1185.22 447.693 1160.18 416.392 1125.7 406.825C1087.08 396.111 1045.26 415.006 1017.2 443.629C997.369 463.862 981.473 489.631 955.656 501.299C937.454 509.526 916.76 509.513 896.787 509.617C876.813 509.721 856.015 510.284 838.27 519.456C820.524 528.63 806.948 549.082 812.255 568.346" stroke="#5700FF" stroke-width="2.3353" stroke-miterlimit="10" stroke-linecap="round" stroke-linejoin="round"/>
</g>
<mask id="mask3_315_1220" style="mask-type:luminance" maskUnits="userSpaceOnUse" x="0" y="0" width="1442" height="547">
<path d="M1440 0L1441.46 546.595H0.00585938L0.300884 0H1440Z" fill="white"/>
</mask>
<g mask="url(#mask3_315_1220)">
<path d="M1118.1 -14.4434C1081.5 18.2224 1058.5 67.7461 1056.27 118.7C1054.54 158.173 1067.68 201.816 1099.95 221.005C1128.46 237.958 1164.28 231.681 1194.44 218.406C1224.61 205.131 1252.3 185.422 1283.54 175.409C1342.18 156.613 1410.12 176.714 1451.42 225.082" stroke="white" stroke-width="2.4158" stroke-miterlimit="10" stroke-linecap="round" stroke-linejoin="round"/>
</g>
<mask id="mask4_315_1220" style="mask-type:luminance" maskUnits="userSpaceOnUse" x="0" y="0" width="1442" height="547">
<path d="M1440 0L1441.46 546.595H0.00585938L0.300884 0H1440Z" fill="white"/>
</mask>
<g mask="url(#mask4_315_1220)">
<path d="M866.005 375.102C848.66 381.51 841.314 401.991 839.314 420.337C837.313 438.682 838.207 458.277 828.86 474.201C818.46 491.912 797.222 500.947 776.695 502.319C757.397 503.608 737.744 499.049 720.997 489.395C689.729 471.375 671.141 438.21 649.269 409.545C630.521 384.975 601.38 356.428 567.926 356.516C526.07 356.63 501.307 392.266 495.672 430.362C488.161 481.137 515.774 524.028 544.491 563.463" stroke="#FF96D3" stroke-width="2.3323" stroke-miterlimit="10" stroke-linecap="round" stroke-linejoin="round"/>
</g>
<mask id="mask5_315_1220" style="mask-type:luminance" maskUnits="userSpaceOnUse" x="0" y="0" width="1441" height="547">
<path d="M1439.54 0L1441 547H0L0.294931 0H1439.54Z" fill="white"/>
<rect y="0.5" width="200" height="203" rx="4" fill="white"/>
</mask>
<g mask="url(#mask5_315_1220)">
<path d="M1319.03 323.879C1319.03 371.399 1316.84 445.862 1316.65 467.752C1316.49 486.809 1319.25 508.829 1335.29 519.179C1346.36 526.328 1361.36 525.496 1373.03 519.36C1384.7 513.225 1393.38 502.506 1399.65 490.924C1410.97 470.019 1414.98 443.526 1403.53 422.695C1398.59 413.707 1388.99 405.598 1378.98 407.921C1357.44 412.924 1358.88 439.618 1363.08 456.314C1369.42 481.515 1390.42 497.122 1399.42 520.804C1403.88 532.54 1403.76 545.942 1399.1 557.599" stroke="#5700FF" stroke-width="2.3323" stroke-miterlimit="10" stroke-linecap="round" stroke-linejoin="round"/>
</g>
<path d="M1144.63 472.838C1185.8 443.418 1205.89 373.855 1177.98 332.697C1160.82 307.405 1126.13 296.942 1096.58 304.84C1047.96 317.829 1017.39 372.176 1025.18 420.607C1026.56 429.205 1029.15 437.578 1033.08 445.408C1047.45 474 1081.44 490.484 1112.89 485.976C1124.38 484.33 1135.07 479.665 1144.63 472.838Z" fill="#FF96D3"/>
<path d="M945.535 378.85C979.539 341.257 984.3 268.863 948.147 234.524C925.929 213.422 889.721 210.582 862.486 224.623C817.669 247.716 799.382 307.452 817.393 353.208C820.589 361.33 824.923 368.975 830.451 375.802C850.641 400.731 887.456 409.615 917.283 398.488C928.178 394.424 937.645 387.574 945.535 378.85Z" fill="#FF96D3"/>
<path d="M1110.42 364.074C1106.89 364.074 1103.39 362.545 1100.99 359.596C1096.77 354.404 1097.56 346.776 1102.76 342.561C1138.22 313.83 1171.89 285.058 1194.19 249.034C1218.68 209.492 1224.91 165.265 1210.87 130.727C1197.7 98.3392 1156.81 58.9166 1084.91 54.4009C1055.72 52.5636 1025.62 57.5975 1000.14 68.5628C972.754 80.3448 951.4 98.5043 938.38 121.083C910.724 169.045 921.25 231.535 933.286 286.344C934.721 292.877 930.575 299.334 924.028 300.767C917.483 302.197 911.008 298.062 909.572 291.529C896.564 232.294 885.364 164.454 917.339 109.002C932.989 81.8623 958.296 60.1865 990.526 46.3214C1019.45 33.8754 1053.52 28.1583 1086.43 30.2274C1154.87 34.5236 1212.54 70.4 1233.37 121.624C1250.3 163.288 1243.38 215.678 1214.85 261.764C1190.55 301.011 1155.2 331.273 1118.07 361.365C1115.82 363.187 1113.11 364.074 1110.42 364.074Z" fill="#FF96D3"/>
<path d="M885.095 273.077C878.302 286.724 877.082 302.42 877.015 317.657C876.938 335.177 879.807 355.476 894.811 364.577C907.102 372.033 923.827 368.606 934.952 359.507C946.075 350.407 952.487 336.775 956.772 323.073C962.205 305.694 964.657 286.345 957.45 269.619C941.668 232.991 900.665 241.797 885.095 273.077Z" stroke="#5700FF" stroke-width="1.3807" stroke-miterlimit="10" stroke-linecap="round" stroke-linejoin="round"/>
<path d="M884.459 298.522C882.927 304.775 882.794 311.274 882.736 317.709C882.696 322.41 882.711 327.231 884.364 331.633C886.016 336.034 889.669 339.997 894.332 340.664C895.858 340.882 897.464 340.731 898.839 340.033C900.439 339.22 901.593 337.754 902.622 336.285C909.894 325.91 913.628 313.113 913.074 300.465C912.908 296.664 912.319 292.747 910.28 289.533C900.747 274.502 887.346 286.744 884.459 298.522Z" stroke="#5700FF" stroke-width="1.3807" stroke-miterlimit="10" stroke-linecap="round" stroke-linejoin="round"/>
<path d="M893.956 219.18C902.028 219.18 908.572 208.102 908.572 194.436C908.572 180.77 902.028 169.691 893.956 169.691C885.884 169.691 879.34 180.77 879.34 194.436C879.34 208.102 885.884 219.18 893.956 219.18Z" fill="#FF96D3"/>
<path d="M926.46 227.254C934.532 227.254 941.076 216.176 941.076 202.51C941.076 188.844 934.532 177.766 926.46 177.766C918.388 177.766 911.844 188.844 911.844 202.51C911.844 216.176 918.388 227.254 926.46 227.254Z" fill="#FF96D3"/>
<path d="M1156.73 301.579C1147.86 311.991 1135.68 316.203 1129.53 310.985C1123.38 305.768 1125.59 293.099 1134.46 282.687C1143.33 272.275 1155.5 268.063 1161.65 273.281C1167.8 278.498 1165.6 291.167 1156.73 301.579Z" fill="#FF96D3"/>
<path d="M1185.38 333.324C1176.51 343.736 1164.33 347.948 1158.18 342.73C1152.03 337.513 1154.24 324.844 1163.11 314.432C1171.98 304.02 1184.16 299.808 1190.31 305.027C1196.46 310.243 1194.25 322.912 1185.38 333.324Z" fill="#FF96D3"/>
<path d="M926.459 219.181C914.96 215.476 902.723 214.066 890.682 215.058" stroke="#5700FF" stroke-width="1.3807" stroke-miterlimit="10" stroke-linecap="round" stroke-linejoin="round"/>
<path d="M892.326 168.01C895.118 167.689 897.241 170.403 898.548 172.888C904.859 184.897 906.526 199.264 903.128 212.393" stroke="#5700FF" stroke-width="1.3807" stroke-miterlimit="10" stroke-linecap="round" stroke-linejoin="round"/>
<path d="M1161.65 273.281L1190.31 305.027C1190.31 305.027 1200.11 314.48 1185.38 333.324L1145.59 292.133L1161.65 273.281Z" fill="#FF96D3"/>
<path d="M1157.16 271.933C1161.84 278.178 1161.43 287.099 1158.18 294.19C1154.93 301.28 1149.29 306.952 1143.76 312.464" stroke="#5700FF" stroke-width="1.3807" stroke-miterlimit="10" stroke-linecap="round" stroke-linejoin="round"/>
<path d="M1144.29 311.965C1155.16 317.608 1164.41 326.309 1170.7 336.804" stroke="#5700FF" stroke-width="1.3807" stroke-miterlimit="10" stroke-linecap="round" stroke-linejoin="round"/>
<path d="M908.84 168.842C910.801 149.328 916.607 130.176 926.085 112.997C928.642 108.363 931.46 103.874 934.524 99.5586" stroke="#5700FF" stroke-width="1.3807" stroke-miterlimit="10" stroke-linecap="round" stroke-linejoin="round"/>
<path d="M987.273 61.0282C990.35 58.4392 994.105 56.8022 997.854 55.3409C1016.25 48.1765 1035.99 44.4599 1055.75 44.4424" stroke="#5700FF" stroke-width="1.3807" stroke-miterlimit="10" stroke-linecap="round" stroke-linejoin="round"/>
<path d="M1171.93 279.946C1185.15 267.434 1195.6 252.028 1202.33 235.137" stroke="#5700FF" stroke-width="1.3807" stroke-miterlimit="10" stroke-linecap="round" stroke-linejoin="round"/>
<path d="M1157.28 412.947L1136.11 410.711L1114.93 408.475L1127.46 391.292L1139.99 374.109L1148.64 393.528L1157.28 412.947Z" stroke="#5700FF" stroke-width="1.2611" stroke-miterlimit="10" stroke-linecap="round" stroke-linejoin="round"/>
<path d="M1171.83 278.626C1174.53 293.401 1168.47 309.442 1156.65 318.751" stroke="#5700FF" stroke-width="1.3807" stroke-miterlimit="10" stroke-linecap="round" stroke-linejoin="round"/>
<path d="M1185.81 298.027C1186.68 309.876 1179.74 321.923 1169.04 327.138" stroke="#5700FF" stroke-width="1.3807" stroke-miterlimit="10" stroke-linecap="round" stroke-linejoin="round"/>
<path d="M1107.13 402.476L1102.18 398.324L1130.4 364.801L1135.35 368.953L1107.13 402.476Z" stroke="#5700FF" stroke-width="1.2611" stroke-miterlimit="10" stroke-linecap="round" stroke-linejoin="round"/>
<path d="M1141.65 320.283C1117.39 320.041 1094.25 335.367 1082.89 356.758C1056.46 406.519 1081.86 477.83 1137.13 461.309" stroke="#5700FF" stroke-width="1.3807" stroke-miterlimit="10" stroke-linecap="round" stroke-linejoin="round"/>
<path d="M882.351 256.992C874.952 265.277 869.024 274.864 865.004 285.214" stroke="#EBDEC4" stroke-width="2.2894" stroke-miterlimit="10" stroke-linecap="round" stroke-linejoin="round"/>
<path d="M900.824 241.104C897.099 243.531 893.557 246.229 890.223 249.167" stroke="#EBDEC4" stroke-width="2.2894" stroke-miterlimit="10" stroke-linecap="round" stroke-linejoin="round"/>
<path d="M1069.01 327.744C1062.32 335.239 1056.96 343.912 1053.32 353.275" stroke="#EBDEC4" stroke-width="2.0711" stroke-miterlimit="10" stroke-linecap="round" stroke-linejoin="round"/>
<path d="M1085.73 313.371C1082.36 315.567 1079.15 318.008 1076.14 320.665" stroke="#EBDEC4" stroke-width="2.0711" stroke-miterlimit="10" stroke-linecap="round" stroke-linejoin="round"/>
<path d="M1327.8 273.822H1306.97V359.489H1327.8V273.822Z" fill="white"/>
<path d="M1317.33 310.986H1317.32C1314.46 310.986 1312.12 308.647 1312.12 305.786V207.71C1312.12 204.848 1314.45 202.509 1317.32 202.509H1317.33C1320.19 202.509 1322.53 204.848 1322.53 207.71V305.786C1322.53 308.647 1320.19 310.986 1317.33 310.986Z" fill="white"/>
<path d="M1312.12 235.71H1322.53" stroke="#5700FF" stroke-width="1.4745" stroke-miterlimit="10" stroke-linecap="round" stroke-linejoin="round"/>
<path d="M1312.12 252.944H1322.53" stroke="#5700FF" stroke-width="1.4745" stroke-miterlimit="10" stroke-linecap="round" stroke-linejoin="round"/>
<path d="M1312.12 273.822H1322.53" stroke="#5700FF" stroke-width="1.4745" stroke-miterlimit="10" stroke-linecap="round" stroke-linejoin="round"/>
<path d="M1306.97 344.805H1327.8" stroke="#5700FF" stroke-width="1.4745" stroke-miterlimit="10" stroke-linecap="round" stroke-linejoin="round"/>
<path d="M1321.31 355.013H1313.46V383.639H1321.31V355.013Z" fill="white"/>
</g>
<defs>
<clipPath id="clip0_315_1220">
<rect width="1440" height="548" fill="white"/>
</clipPath>
</defs>
</svg>
