<svg width="21" height="20" viewBox="0 0 21 20" fill="none" xmlns="http://www.w3.org/2000/svg">
<path d="M3.83337 9.77142C3.83337 9.45501 4.0685 9.19351 4.37357 9.15213L4.45837 9.14642H16.9584C17.3036 9.14642 17.5834 9.42625 17.5834 9.77142C17.5834 10.0878 17.3482 10.3493 17.0432 10.3907L16.9584 10.3964H4.45837C4.1132 10.3964 3.83337 10.1166 3.83337 9.77142Z" fill="white"/>
<path d="M11.4759 5.19399C11.2313 4.95044 11.2304 4.55471 11.474 4.31011C11.6954 4.08774 12.0426 4.06682 12.2876 4.24784L12.3579 4.30821L17.3995 9.32821C17.6226 9.55028 17.6428 9.89871 17.4604 10.1438L17.3996 10.214L12.3579 15.2348C12.1133 15.4784 11.7176 15.4775 11.474 15.233C11.2526 15.0106 11.2331 14.6633 11.4152 14.419L11.4758 14.3491L16.0725 9.77085L11.4759 5.19399Z" fill="white"/>
</svg>
