<svg width="570" height="444" viewBox="0 0 570 444" fill="none" xmlns="http://www.w3.org/2000/svg">
<path d="M311.528 222.061C311.535 222.049 311.544 222.038 311.551 222.026L311.549 222.024C317.358 211.71 317.409 195.631 310.582 180.064C303.757 164.499 291.897 153.641 280.374 150.925L280.37 150.924C278.607 150.508 276.852 150.283 275.124 150.26C275.103 150.26 275.082 150.262 275.06 150.262C274.543 150.256 274.028 150.272 273.517 150.302C273.396 150.309 273.277 150.322 273.157 150.332C272.745 150.364 272.335 150.409 271.926 150.466C271.767 150.489 271.606 150.512 271.448 150.539C271.078 150.601 270.71 150.673 270.344 150.755C270.172 150.792 270 150.83 269.828 150.872C269.459 150.965 269.094 151.075 268.73 151.189C268.576 151.238 268.421 151.278 268.268 151.333C267.76 151.506 267.254 151.698 266.756 151.917L264.312 146.342C262.744 142.768 258.576 141.139 254.999 142.707L249.63 145.061C241.638 126.838 229.458 111.281 214.18 99.398C214.405 94.7724 212.21 90.1621 208.016 87.5119C173.055 65.4295 129.6 62.1493 91.7756 78.7338C53.264 95.6222 26.1206 130.494 19.1653 172.017C18.3393 176.949 20.3511 181.698 24.0052 184.606C22.7564 202.939 25.751 221.819 33.6261 239.78L28.3746 242.084C24.799 243.652 23.1708 247.823 24.7388 251.396L53.432 316.833L27.1818 256.971C26.6848 257.188 26.2018 257.43 25.7286 257.686C25.5844 257.765 25.4486 257.85 25.3072 257.933C24.9782 258.122 24.652 258.315 24.3356 258.523C24.1886 258.619 24.0458 258.722 23.9002 258.823C23.5908 259.036 23.287 259.257 22.9916 259.491C22.8656 259.589 22.741 259.69 22.6164 259.79C22.2958 260.054 21.985 260.327 21.6812 260.608C21.5944 260.689 21.5048 260.768 21.4194 260.85C21.0469 261.207 20.6858 261.578 20.3385 261.963C20.3259 261.977 20.3119 261.99 20.3007 262.004C11.5955 271.69 10.3299 290.325 18.2021 308.277C25.0272 323.844 36.8867 334.699 48.4088 337.415L48.4102 337.418C48.4228 337.421 48.4368 337.422 48.448 337.427C50.1924 337.834 51.927 338.058 53.6378 338.08C53.691 338.082 53.7428 338.079 53.796 338.079C54.2832 338.082 54.7676 338.069 55.2506 338.04C55.3836 338.031 55.5167 338.019 55.6497 338.009C56.0515 337.977 56.4505 337.933 56.8481 337.877C57.0119 337.854 57.1757 337.83 57.3395 337.802C57.7091 337.742 58.0745 337.667 58.4399 337.586C58.6107 337.55 58.7815 337.512 58.9523 337.47C59.3247 337.376 59.6929 337.266 60.0597 337.151C60.2095 337.103 60.3607 337.063 60.5091 337.011C61.0187 336.836 61.5255 336.644 62.0239 336.426L63.9181 340.745C65.4861 344.319 69.6568 345.949 73.2324 344.38L98.4816 333.309C102.057 331.741 103.684 327.569 102.117 323.995L100.624 320.586L101.997 319.983C104.881 318.718 106.193 315.353 104.929 312.469L73.3206 240.389C72.0564 237.504 68.6908 236.192 65.8081 237.455L64.4333 238.058L62.9381 234.648C61.3701 231.072 57.2009 229.445 53.6252 231.012L46.5776 234.103C39.7315 218.491 37.0799 202.092 38.0725 186.144C41.7979 184.327 44.6231 180.803 45.3596 176.403C50.828 143.752 72.1684 116.331 102.442 103.055C132.174 90.0151 166.34 92.5996 193.835 109.965C197.637 112.366 202.189 112.59 206.047 110.982C219.233 121.384 229.748 134.923 236.682 150.739L229.752 153.779C226.175 155.348 224.55 159.517 226.117 163.092L227.612 166.503L226.237 167.107C223.353 168.37 222.038 171.737 223.304 174.619L244.153 222.166L254.912 246.7C256.176 249.584 259.543 250.898 262.426 249.633L263.799 249.03L265.294 252.439C266.862 256.015 271.032 257.644 274.609 256.075L299.858 245.003C303.435 243.437 305.06 239.263 303.491 235.689L273.965 168.356L301.598 231.372C302.095 231.155 302.577 230.912 303.05 230.656C303.194 230.576 303.334 230.49 303.478 230.407C303.805 230.219 304.128 230.028 304.442 229.822C304.594 229.721 304.744 229.615 304.894 229.511C305.193 229.302 305.487 229.087 305.776 228.863C305.913 228.756 306.047 228.649 306.182 228.538C306.486 228.289 306.78 228.031 307.068 227.764C307.173 227.667 307.279 227.572 307.383 227.473C307.723 227.146 308.054 226.806 308.373 226.456C308.416 226.41 308.462 226.364 308.504 226.316C309.64 225.043 310.649 223.618 311.528 222.061Z" fill="#EA9639"/>
<path d="M21.5705 247.981C6.98795 254.374 2.96851 277.345 12.5894 299.286C22.2103 321.227 41.8286 333.829 56.4112 327.433L21.5705 247.981Z" fill="#FF4B00"/>
<path d="M42.7961 328.426C47.5128 329.538 52.1734 329.29 56.4099 327.433L21.5706 247.981C17.3341 249.838 13.9965 253.103 11.6193 257.325L42.7961 328.426Z" fill="#FF96D3"/>
<path d="M99.3146 303.476C100.579 306.36 99.2656 309.726 96.383 310.99L70.788 322.214C67.9053 323.478 64.5397 322.165 63.2741 319.28L31.6674 247.199C30.4032 244.313 31.7164 240.95 34.6005 239.685L60.1941 228.461C63.0781 227.198 66.4423 228.509 67.7066 231.395L99.3146 303.476Z" fill="white"/>
<path d="M52.5165 294.746L63.2742 319.278C64.5385 322.164 67.9041 323.477 70.7881 322.213L96.3831 310.989C99.2671 309.725 100.58 306.359 99.3147 303.475L88.5557 278.943L52.5165 294.746Z" fill="#DAE2ED"/>
<path d="M96.5033 315.001C98.0714 318.577 96.4445 322.748 92.8675 324.316L67.6183 335.387C64.0427 336.955 59.872 335.325 58.304 331.751L19.1261 242.404C17.5581 238.83 19.1863 234.66 22.7619 233.092L48.0111 222.02C51.5867 220.453 55.7574 222.08 57.324 225.655L96.5033 315.001Z" fill="#5700FF"/>
<path d="M47.7354 307.65L58.304 331.752C59.8721 335.327 64.0427 336.956 67.6183 335.388L92.8675 324.317C96.4432 322.749 98.07 318.577 96.5034 315.003L85.9347 290.901L47.7354 307.65Z" fill="#1A222F"/>
<path d="M261.143 142.926C275.727 136.532 295.35 149.136 304.969 171.074C314.59 193.015 310.568 215.983 295.986 222.379L261.143 142.926Z" fill="#FF4B00"/>
<path d="M305.938 213.037C303.561 217.26 300.222 220.522 295.986 222.38L261.143 142.926C265.38 141.068 270.043 140.825 274.761 141.936L305.938 213.037Z" fill="#FF96D3"/>
<path d="M249.298 237.708C250.562 240.592 253.929 241.905 256.812 240.641L282.405 229.417C285.291 228.154 286.604 224.787 285.34 221.903L253.73 149.824C252.466 146.938 249.101 145.627 246.218 146.891L220.623 158.115C217.739 159.377 216.424 162.744 217.69 165.627L249.298 237.708Z" fill="white"/>
<path d="M274.581 197.37L285.34 221.905C286.604 224.789 285.291 228.156 282.405 229.419L256.812 240.643C253.928 241.907 250.562 240.594 249.298 237.71L238.539 213.176L274.581 197.37Z" fill="#DAE2ED"/>
<path d="M259.68 243.448C261.248 247.024 265.418 248.653 268.995 247.084L294.244 236.013C297.821 234.446 299.446 230.273 297.877 226.698L258.699 137.352C257.131 133.778 252.963 132.15 249.386 133.718L224.138 144.788C220.561 146.357 218.936 150.526 220.503 154.101L259.68 243.448Z" fill="#5700FF"/>
<path d="M287.31 202.596L297.878 226.697C299.448 230.273 297.822 234.445 294.245 236.011L268.996 247.082C265.419 248.652 261.25 247.022 259.682 243.447L249.113 219.344L287.31 202.596Z" fill="#1A222F"/>
<path d="M28.9009 214.528L66.1875 299.558" stroke="white" stroke-width="5.0496" stroke-miterlimit="10" stroke-linecap="round" stroke-linejoin="round"/>
<path d="M231.316 125.769L268.603 210.799" stroke="white" stroke-width="5.0496" stroke-miterlimit="10" stroke-linecap="round" stroke-linejoin="round"/>
<path d="M34.4885 227.95C9.90145 171.877 35.4237 106.489 91.4955 81.9021C147.566 57.3137 212.955 82.8374 237.543 138.909" stroke="#5700FF" stroke-width="10.0992" stroke-miterlimit="10" stroke-linecap="round" stroke-linejoin="round"/>
<path d="M26.6484 165.218C32.6222 129.553 55.9044 97.5109 91.4955 81.9022C126.539 66.5343 165.224 70.7427 195.312 89.7479" stroke="#FF4B00" stroke-width="18.9691" stroke-miterlimit="10" stroke-linecap="round" stroke-linejoin="round"/>
<path d="M26.6484 165.218C32.6222 129.553 55.9044 97.5109 91.4955 81.9022C126.539 66.5343 165.224 70.7427 195.312 89.7479" stroke="#FF96D3" stroke-width="1.8969" stroke-miterlimit="10" stroke-linecap="round" stroke-linejoin="round"/>
<path d="M460.249 186.506C443.146 175.655 420.489 180.721 409.64 197.825L381.444 242.269L378.541 240.428C377.43 239.724 376.026 239.891 375.096 240.736L367.795 236.105L368.923 234.326C369.955 232.699 369.474 230.543 367.844 229.51C366.22 228.479 364.06 228.96 363.028 230.589L361.901 232.367L356.654 229.038C355.773 228.479 354.605 228.741 354.047 229.622L343.919 245.586C343.359 246.468 343.621 247.639 344.5 248.196L349.747 251.525L331.309 280.589C315.887 304.899 320.707 336.357 341.298 355.116L334.441 365.927L332.177 364.492C331.752 364.223 331.187 364.346 330.917 364.771L325.425 373.431C325.158 373.855 325.282 374.419 325.708 374.69L327.972 376.126L320.837 387.372L312.676 382.195C312.252 381.928 311.688 382.052 311.419 382.478L307.485 388.677L290.573 377.947C290.146 377.677 289.583 377.803 289.313 378.229L283.821 386.885C283.549 387.314 283.677 387.874 284.104 388.145L352.882 431.778C353.309 432.048 353.872 431.922 354.141 431.496L359.633 422.84C359.902 422.413 359.777 421.849 359.35 421.58L342.438 410.852L346.372 404.651C346.641 404.226 346.515 403.663 346.088 403.393L337.931 398.218L345.067 386.971L347.331 388.407C347.758 388.677 348.319 388.55 348.588 388.124L354.082 379.465C354.351 379.042 354.226 378.479 353.8 378.209L351.537 376.773L358.404 365.948C365.577 368.91 373.114 370.379 380.599 370.379C399.973 370.378 418.949 360.778 430.073 343.245L448.513 314.178L455.574 318.657C456.456 319.217 457.624 318.957 458.184 318.072L468.31 302.107C468.87 301.225 468.608 300.058 467.728 299.499L460.666 295.019L461.793 293.243C462.825 291.614 462.343 289.458 460.715 288.425C459.086 287.395 456.931 287.875 455.898 289.504L454.771 291.281L447.472 286.651C447.839 285.451 447.391 284.109 446.28 283.403L443.379 281.564L471.575 237.119C482.421 220.012 477.352 197.354 460.249 186.506ZM424.176 339.503C408.967 363.478 377.08 370.614 353.105 355.399C329.125 340.186 321.992 308.302 337.203 284.327L355.641 255.262L362.943 259.893C362.574 261.093 363.021 262.437 364.131 263.142L367.033 264.982L350.057 291.743C339.838 307.85 343.747 328.884 358.527 340.342C358.538 340.35 358.549 340.359 358.56 340.367C359.462 341.063 360.399 341.731 361.38 342.352C378.483 353.202 401.142 348.133 411.991 331.033L428.967 304.272L431.871 306.113C432.981 306.816 434.385 306.649 435.316 305.805L442.614 310.435L424.176 339.503Z" fill="#EA9639"/>
<path d="M373.422 243.167L408.822 187.365C419.671 170.261 442.33 165.196 459.431 176.046C476.534 186.895 481.603 209.554 470.756 226.655L435.355 282.455L373.422 243.167Z" fill="white"/>
<path d="M395.833 231.558C394.661 233.403 392.218 233.949 390.373 232.778C388.53 231.608 387.982 229.164 389.153 227.32C390.324 225.475 392.767 224.927 394.611 226.096C396.456 227.268 397.003 229.712 395.833 231.558Z" fill="#DAE2ED"/>
<path d="M411.551 241.53C410.382 243.375 407.936 243.921 406.094 242.752C404.248 241.582 403.702 239.137 404.873 237.292C406.043 235.448 408.486 234.9 410.33 236.07C412.175 237.24 412.723 239.683 411.551 241.53Z" fill="#DAE2ED"/>
<path d="M427.272 251.501C426.1 253.348 423.657 253.894 421.812 252.723C419.969 251.554 419.42 249.108 420.592 247.265C421.763 245.421 424.206 244.872 426.049 246.042C427.895 247.211 428.441 249.654 427.272 251.501Z" fill="#DAE2ED"/>
<path d="M442.991 261.472C441.819 263.318 439.373 263.864 437.529 262.695C435.686 261.524 435.137 259.079 436.309 257.235C437.479 255.39 439.923 254.843 441.767 256.014C443.612 257.182 444.16 259.628 442.991 261.472Z" fill="#DAE2ED"/>
<path d="M409.675 227.114C408.506 228.957 406.061 229.505 404.216 228.335C402.372 227.163 401.826 224.722 402.995 222.876C404.167 221.031 406.61 220.482 408.454 221.654C410.298 222.823 410.847 225.268 409.675 227.114Z" fill="#DAE2ED"/>
<path d="M425.393 237.085C424.224 238.93 421.779 239.476 419.937 238.306C418.09 237.135 417.544 234.691 418.715 232.847C419.885 231.002 422.329 230.455 424.173 231.625C426.017 232.794 426.565 235.237 425.393 237.085Z" fill="#DAE2ED"/>
<path d="M441.112 247.054C439.94 248.901 437.497 249.448 435.652 248.278C433.81 247.108 433.262 244.663 434.433 242.818C435.603 240.974 438.046 240.425 439.89 241.597C441.738 242.766 442.281 245.209 441.112 247.054Z" fill="#DAE2ED"/>
<path d="M408.493 211.601C407.323 213.446 404.878 213.993 403.033 212.821C401.189 211.652 400.642 209.207 401.814 207.363C402.984 205.519 405.427 204.971 407.271 206.143C409.118 207.311 409.664 209.754 408.493 211.601Z" fill="#DAE2ED"/>
<path d="M424.213 221.573C423.042 223.417 420.598 223.963 418.752 222.794C416.91 221.623 416.361 219.179 417.532 217.335C418.703 215.491 421.147 214.944 422.992 216.114C424.836 217.282 425.383 219.726 424.213 221.573Z" fill="#DAE2ED"/>
<path d="M439.93 231.545C438.76 233.389 436.316 233.936 434.472 232.765C432.627 231.596 432.081 229.151 433.251 227.307C434.421 225.462 436.866 224.916 438.708 226.085C440.556 227.254 441.102 229.697 439.93 231.545Z" fill="#DAE2ED"/>
<path d="M455.65 241.515C454.478 243.361 452.036 243.907 450.19 242.738C448.346 241.566 447.797 239.122 448.969 237.277C450.138 235.432 452.584 234.886 454.429 236.057C456.273 237.225 456.821 239.669 455.65 241.515Z" fill="#DAE2ED"/>
<path d="M422.338 207.156C421.166 209.001 418.72 209.548 416.876 208.378C415.033 207.206 414.485 204.763 415.657 202.918C416.827 201.073 419.269 200.527 421.114 201.697C422.96 202.867 423.507 205.309 422.338 207.156Z" fill="#DAE2ED"/>
<path d="M438.055 217.126C436.884 218.972 434.44 219.518 432.596 218.349C430.752 217.178 430.203 214.732 431.375 212.89C432.547 211.045 434.988 210.499 436.834 211.671C438.678 212.838 439.226 215.281 438.055 217.126Z" fill="#DAE2ED"/>
<path d="M453.774 227.099C452.603 228.942 450.16 229.49 448.314 228.319C446.469 227.149 445.923 224.705 447.093 222.859C448.265 221.014 450.708 220.468 452.55 221.639C454.398 222.809 454.944 225.253 453.774 227.099Z" fill="#DAE2ED"/>
<path d="M421.155 191.643C419.983 193.487 417.54 194.035 415.695 192.863C413.851 191.694 413.305 189.249 414.474 187.405C415.644 185.562 418.089 185.014 419.933 186.183C421.778 187.354 422.324 189.798 421.155 191.643Z" fill="#DAE2ED"/>
<path d="M436.874 201.616C435.702 203.459 433.258 204.007 431.414 202.836C429.57 201.665 429.023 199.222 430.195 197.376C431.364 195.534 433.808 194.985 435.652 196.156C437.496 197.326 438.045 199.769 436.874 201.616Z" fill="#DAE2ED"/>
<path d="M452.591 211.587C451.422 213.43 448.977 213.978 447.132 212.807C445.29 211.638 444.741 209.193 445.911 207.347C447.082 205.505 449.526 204.958 451.37 206.128C453.214 207.298 453.76 209.741 452.591 211.587Z" fill="#DAE2ED"/>
<path d="M468.312 221.558C467.141 223.403 464.695 223.949 462.853 222.78C461.006 221.608 460.46 219.163 461.631 217.32C462.8 215.476 465.246 214.928 467.089 216.1C468.933 217.268 469.481 219.714 468.312 221.558Z" fill="#DAE2ED"/>
<path d="M434.998 187.197C433.826 189.042 431.383 189.588 429.537 188.419C427.693 187.247 427.147 184.806 428.317 182.959C429.488 181.115 431.931 180.567 433.776 181.738C435.62 182.909 436.169 185.355 434.998 187.197Z" fill="#DAE2ED"/>
<path d="M450.716 197.169C449.544 199.014 447.1 199.562 445.258 198.39C443.412 197.22 442.865 194.775 444.037 192.931C445.206 191.088 447.65 190.54 449.495 191.711C451.339 192.881 451.887 195.324 450.716 197.169Z" fill="#DAE2ED"/>
<path d="M466.434 207.14C465.262 208.985 462.821 209.533 460.974 208.362C459.13 207.192 458.584 204.746 459.753 202.902C460.924 201.058 463.368 200.511 465.213 201.682C467.059 202.853 467.605 205.296 466.434 207.14Z" fill="#DAE2ED"/>
<path d="M449.535 181.656C448.363 183.501 445.92 184.048 444.076 182.878C442.232 181.708 441.686 179.263 442.855 177.418C444.026 175.575 446.469 175.027 448.312 176.197C450.156 177.368 450.705 179.811 449.535 181.656Z" fill="#DAE2ED"/>
<path d="M465.253 191.628C464.082 193.472 461.636 194.021 459.792 192.849C457.95 191.68 457.403 189.235 458.574 187.39C459.744 185.548 462.187 185 464.03 186.169C465.877 187.341 466.423 189.784 465.253 191.628Z" fill="#DAE2ED"/>
<path d="M341.519 343.06L315.592 383.926L332.686 394.771L358.613 353.905L341.519 343.06Z" fill="#5700FF"/>
<path d="M365.157 221.997L333.439 272C317.171 297.641 324.773 331.617 350.417 347.888C376.062 364.156 410.038 356.555 426.306 330.914L458.026 280.911" stroke="#5700FF" stroke-width="4.986" stroke-miterlimit="10" stroke-linecap="round" stroke-linejoin="round"/>
<path d="M352.059 229.616L456.717 296.01" stroke="#5700FF" stroke-width="4.986" stroke-miterlimit="10" stroke-linecap="round" stroke-linejoin="round"/>
<path d="M347.769 377.664C347.5 378.09 346.938 378.219 346.512 377.947L324.889 364.23C324.463 363.96 324.337 363.394 324.606 362.971L330.098 354.311C330.368 353.887 330.934 353.762 331.358 354.032L352.981 367.75C353.407 368.02 353.533 368.584 353.263 369.005L347.769 377.664Z" fill="#27323F"/>
<path d="M340.062 402.849C339.792 403.276 339.228 403.401 338.802 403.129L305.391 381.934C304.965 381.664 304.838 381.1 305.108 380.676L310.602 372.018C310.87 371.592 311.436 371.466 311.859 371.735L345.27 392.933C345.699 393.203 345.825 393.767 345.554 394.193L340.062 402.849Z" fill="#27323F"/>
<path d="M308.222 375.774L306.104 379.114L341.056 401.288L343.174 397.948L308.222 375.774Z" fill="#1A222F"/>
<path d="M353.323 421.037C353.054 421.462 352.49 421.59 352.064 421.318L283.286 377.685C282.859 377.414 282.73 376.852 283.003 376.425L288.495 367.769C288.764 367.343 289.328 367.216 289.754 367.488L358.532 411.12C358.96 411.389 359.085 411.955 358.815 412.38L353.323 421.037Z" fill="#27323F"/>
<path d="M377.903 232.576C378.785 233.133 379.046 234.3 378.487 235.182L368.358 251.148C367.801 252.03 366.632 252.292 365.75 251.732L343.683 237.735C342.803 237.177 342.542 236.007 343.102 235.125L353.229 219.161C353.789 218.28 354.955 218.018 355.836 218.577L377.903 232.576Z" fill="#FF4B00"/>
<path d="M466.909 289.038C467.789 289.597 468.051 290.764 467.491 291.646L457.365 307.611C456.805 308.495 455.637 308.756 454.755 308.196L432.69 294.2C431.808 293.641 431.547 292.472 432.106 291.589L442.234 275.625C442.794 274.743 443.961 274.482 444.843 275.041L466.909 289.038Z" fill="#FF4B00"/>
<path d="M373.422 243.167L349.241 281.286C338.392 298.387 343.461 321.045 360.564 331.895C377.666 342.745 400.326 337.676 411.174 320.576L435.357 282.457L373.422 243.167Z" fill="#27323F"/>
<path d="M423.773 275.108L399.592 313.228C389.999 328.349 371.176 334.053 355.122 327.672C356.773 329.217 358.584 330.638 360.564 331.895C377.666 342.745 400.326 337.676 411.174 320.576L435.357 282.457L423.773 275.108Z" fill="#1A222F"/>
<path d="M373.421 243.178L361.857 261.406L423.789 300.697L435.353 282.469L373.421 243.178Z" fill="#1A222F"/>
<path d="M434.998 294.774C434.151 296.105 432.386 296.5 431.054 295.657L363.313 252.685C361.982 251.838 361.587 250.073 362.433 248.74L373.779 230.854C374.626 229.521 376.391 229.126 377.724 229.97L445.462 272.942C446.795 273.788 447.191 275.553 446.345 276.887L434.998 294.774Z" fill="#27323F"/>
<path d="M445.462 272.941L433.88 265.594C435.214 266.439 435.609 268.205 434.763 269.539L423.417 287.424C422.573 288.757 420.808 289.153 419.472 288.307L431.056 295.656C432.387 296.5 434.153 296.104 435 294.773L446.345 276.886C447.191 275.552 446.795 273.786 445.462 272.941Z" fill="#1A222F"/>
<path d="M430.913 279.64C430.005 281.072 428.106 281.498 426.673 280.586L378.812 250.226C377.379 249.317 376.955 247.417 377.862 245.985C378.772 244.554 380.672 244.126 382.103 245.036L429.964 275.398C431.398 276.306 431.822 278.206 430.913 279.64Z" fill="#FF4B00"/>
<path d="M153.624 231.874L227.696 244.917C236.612 246.483 242.702 254.384 241.27 262.518L211.531 431.438C210.099 439.573 201.678 444.908 192.763 443.339L118.691 430.299C109.78 428.73 103.69 420.841 105.122 412.704L134.86 243.783C136.292 235.65 144.713 230.305 153.624 231.874Z" fill="#EA9639"/>
<path d="M148.077 223.365L222.149 236.406C231.066 237.973 237.156 245.873 235.723 254.007L205.984 422.928C204.552 431.065 196.131 436.399 187.216 434.83L113.144 421.79C104.233 420.221 98.1428 412.331 99.575 404.195L129.313 235.273C130.745 227.141 139.166 221.795 148.077 223.365Z" fill="#27323F"/>
<path d="M150.142 228.21L218.555 240.253C226.786 241.704 232.368 249.212 231 256.985L202.561 418.514C201.191 426.295 193.383 431.439 185.151 429.99L116.736 417.948C108.51 416.498 102.927 408.995 104.297 401.215L132.736 239.684C134.105 231.912 141.914 226.763 150.142 228.21Z" fill="#1A222F"/>
<path d="M175.716 245.206L189.05 247.551C190.227 247.759 191.031 248.825 190.838 249.923C190.643 251.023 189.523 251.757 188.346 251.551L175.012 249.202C173.839 248.995 173.029 247.922 173.225 246.822C173.417 245.726 174.543 244.999 175.716 245.206Z" fill="#27323F"/>
<path d="M145.108 408.283L162.125 411.28C163.626 411.545 164.627 413.086 164.341 414.705C164.055 416.324 162.587 417.44 161.086 417.177L144.07 414.181C142.564 413.916 141.57 412.365 141.855 410.745C142.14 409.126 143.601 408.018 145.108 408.283Z" fill="#27323F"/>
<path d="M195.446 406.292L115.497 392.218C113.323 391.834 111.852 389.88 112.212 387.843L135.456 255.816C135.813 253.782 137.863 252.445 140.038 252.828L219.987 266.901C222.155 267.283 223.627 269.239 223.268 271.275L200.025 403.304C199.666 405.339 197.614 406.673 195.446 406.292Z" fill="#FDFFFF"/>
<path d="M198.68 338.291C198.435 339.689 197.101 340.623 195.704 340.375L137.759 330.175C136.362 329.928 135.429 328.597 135.674 327.198L145.876 269.253C146.121 267.856 147.454 266.922 148.851 267.169L206.796 277.369C208.193 277.615 209.126 278.947 208.881 280.347L198.68 338.291Z" fill="#FF4B00"/>
<path d="M178.4 301.823C177.854 304.918 174.904 306.986 171.809 306.441C168.713 305.895 166.647 302.946 167.191 299.852C167.736 296.756 170.687 294.687 173.783 295.233C176.878 295.78 178.945 298.729 178.4 301.823Z" fill="#F1C049"/>
<path d="M187.346 303.401C185.931 311.434 178.27 316.804 170.234 315.389C162.196 313.975 156.829 306.314 158.244 298.275C159.658 290.241 167.319 284.871 175.356 286.285C183.394 287.701 188.761 295.363 187.346 303.401Z" stroke="#FF96D3" stroke-width="1.3154" stroke-miterlimit="10"/>
<path d="M192.968 304.388C191.007 315.53 180.387 322.973 169.244 321.01C158.103 319.05 150.661 308.427 152.621 297.284C154.583 286.144 165.205 278.702 176.348 280.665C187.49 282.626 194.93 293.248 192.968 304.388Z" stroke="#FF96D3" stroke-width="1.3154" stroke-miterlimit="10"/>
<path d="M177.183 328.461L179.476 315.437C179.829 313.433 178.489 311.522 176.486 311.169L165.796 309.286C163.792 308.933 161.883 310.272 161.53 312.275L159.237 325.3L177.183 328.461Z" fill="#F1C049"/>
<path d="M174.595 375.865C173.164 383.998 165.412 389.429 157.281 387.996C149.15 386.564 143.719 378.811 145.151 370.682C146.583 362.551 154.334 357.121 162.465 358.553C170.596 359.985 176.027 367.734 174.595 375.865Z" fill="#F1C049"/>
<path d="M156.568 367.069L154.461 379.035C154.251 380.229 155.493 381.156 156.579 380.61L165.678 376.044C166.564 375.601 166.77 374.429 166.088 373.709L159.095 366.31C158.262 365.429 156.778 365.873 156.568 367.069Z" fill="#27323F"/>
<path d="M184.092 374.531L183.175 379.741C183.084 380.26 183.625 380.663 184.098 380.425L188.059 378.44C188.445 378.245 188.533 377.734 188.238 377.421L185.193 374.201C184.83 373.817 184.185 374.01 184.092 374.531Z" fill="#27323F"/>
<path d="M189.841 381.044C189.792 381.325 189.524 381.511 189.244 381.462C188.964 381.415 188.778 381.145 188.827 380.865L189.789 375.403C189.838 375.123 190.105 374.937 190.385 374.985C190.665 375.034 190.853 375.302 190.804 375.581L189.841 381.044Z" fill="#27323F"/>
<path d="M136.68 366.184L135.763 371.394C135.672 371.916 135.026 372.109 134.662 371.723L131.619 368.503C131.323 368.189 131.413 367.678 131.798 367.485L135.757 365.497C136.232 365.26 136.771 365.665 136.68 366.184Z" fill="#27323F"/>
<path d="M129.054 370.342C129.003 370.622 129.191 370.891 129.471 370.939C129.751 370.988 130.017 370.801 130.067 370.521L131.029 365.059C131.078 364.78 130.892 364.511 130.611 364.461C130.332 364.412 130.063 364.601 130.016 364.881L129.054 370.342Z" fill="#27323F"/>
<path d="M134.554 342.065L193.82 352.499" stroke="#1A222F" stroke-width="0.9321" stroke-miterlimit="10" stroke-linecap="round" stroke-linejoin="round"/>
<path d="M134.554 342.065L174.947 349.176" stroke="#F1C049" stroke-width="2.3303" stroke-miterlimit="10" stroke-linecap="round" stroke-linejoin="round"/>
<path d="M180.9 350.273C180.521 352.429 178.464 353.871 176.307 353.492C174.15 353.112 172.71 351.056 173.09 348.9C173.469 346.742 175.526 345.302 177.682 345.681C179.841 346.06 181.28 348.117 180.9 350.273Z" fill="#F1C049"/>
<path d="M539.704 192.876C539.266 190.354 537.21 189.962 534.875 191.009L516.812 197.654C515.171 198.389 514.239 200.142 514.548 201.911L515.352 206.513L515.88 209.553L518.324 223.574C516.987 223.06 515.439 222.89 513.848 223.168C509.725 223.887 506.88 227.321 507.494 230.838C508.107 234.355 511.946 236.625 516.066 235.905C520.189 235.187 523.034 231.754 522.421 228.236C522.323 227.669 518.946 208.461 518.946 208.461L537.717 201.472L540.075 214.993C538.79 214.542 537.321 214.404 535.815 214.667C531.691 215.386 528.847 218.821 529.46 222.337C530.073 225.854 533.912 228.124 538.035 227.405C542.155 226.686 545 223.253 544.39 219.733C544.254 218.97 539.704 192.876 539.704 192.876Z" fill="#FF4B00"/>
<path d="M32.2932 374.026C31.855 371.504 29.7998 371.112 27.4646 372.16L9.40162 378.804C7.7608 379.539 6.8284 381.292 7.1378 383.062L7.94141 387.663L8.46921 390.703L10.9136 404.724C9.57662 404.21 8.02821 404.041 6.43779 404.318C2.31476 405.038 -0.530065 408.472 0.0831408 411.989C0.696346 415.505 4.53518 417.775 8.65541 417.055C12.7784 416.337 15.6219 412.904 15.0101 409.385C14.9121 408.818 11.5352 389.609 11.5352 389.609L30.3066 382.621L32.6642 396.142C31.379 395.691 29.9104 395.552 28.404 395.816C24.2809 396.535 21.4361 399.969 22.0493 403.486C22.6625 407.003 26.5014 409.273 30.6244 408.554C34.7446 407.835 37.5895 404.402 36.9791 400.884C36.8433 400.122 32.2932 374.026 32.2932 374.026Z" fill="#FF4B00"/>
<path d="M459.345 385.661C463.818 384.399 462.437 376.886 457.231 378.286L445.987 381.284C444.079 381.978 442.886 383.878 443.089 385.899L443.617 391.161L443.964 394.631L445.57 410.652C444.101 409.963 442.371 409.642 440.552 409.826C435.841 410.296 432.35 413.94 432.751 417.958C433.156 421.978 437.301 424.855 442.01 424.379C446.721 423.908 450.212 420.27 449.808 416.249C449.742 415.601 447.085 388.713 447.085 388.713L459.345 385.661Z" fill="#FF4B00"/>
<path d="M181.546 163.929C186.019 162.666 184.638 155.154 179.432 156.554L168.188 159.551C166.28 160.245 165.087 162.147 165.29 164.167L165.818 169.428L166.165 172.897L167.77 188.918C166.301 188.229 164.571 187.908 162.752 188.092C158.041 188.562 154.549 192.206 154.951 196.224C155.356 200.244 159.5 203.121 164.209 202.645C168.92 202.174 172.412 198.534 172.007 194.515C171.942 193.867 169.284 166.98 169.284 166.98L181.546 163.929Z" fill="#FF4B00"/>
<path d="M290.334 0.000183105L286.328 12.6941L273.62 16.7135L286.328 20.7372L290.334 33.4353L294.376 20.7372L307.055 16.7135L294.376 12.6941L290.334 0.000183105Z" fill="#EA9639"/>
<path d="M277.857 296.724L273.851 309.418L261.143 313.439L273.851 317.461L277.857 330.159L281.899 317.461L294.578 313.439L281.899 309.418L277.857 296.724Z" fill="#EA9639"/>
<path d="M517.76 363.778L513.755 376.47L501.048 380.491L513.755 384.513L517.76 397.213L521.802 384.513L534.483 380.491L521.802 376.47L517.76 363.778Z" fill="#EA9639"/>
<path d="M89.1309 139.664L85.1241 152.356L72.4176 156.377L85.1241 160.4L89.1309 173.099L93.1714 160.4L105.853 156.377L93.1714 152.356L89.1309 139.664Z" fill="#EA9639"/>
<path d="M7.07489 85.6276C10.9409 85.6276 14.075 82.4935 14.075 78.6275C14.075 74.7615 10.9409 71.6274 7.07489 71.6274C3.20886 71.6274 0.0748291 74.7615 0.0748291 78.6275C0.0748291 82.4935 3.20886 85.6276 7.07489 85.6276Z" fill="#EA9639"/>
<path d="M362.119 160.829C362.119 164.695 358.986 167.828 355.119 167.828C351.252 167.828 348.119 164.695 348.119 160.829C348.119 156.962 351.252 153.829 355.119 153.829C358.986 153.829 362.119 156.962 362.119 160.829Z" fill="#EA9639"/>
<path d="M570 308.492C570 312.358 566.867 315.491 563 315.491C559.133 315.491 556 312.358 556 308.492C556 304.626 559.133 301.492 563 301.492C566.865 301.492 570 304.626 570 308.492Z" fill="#EA9639"/>
</svg>
