<svg width="228" height="48" viewBox="0 0 228 48" fill="none" xmlns="http://www.w3.org/2000/svg">
<path d="M16.896 19.64C16.4907 18.8933 15.904 18.328 15.136 17.944C14.3893 17.5387 13.504 17.336 12.48 17.336C10.7093 17.336 9.29067 17.9227 8.224 19.096C7.15733 20.248 6.624 21.7947 6.624 23.736C6.624 25.8053 7.17867 27.4267 8.288 28.6C9.41867 29.752 10.9653 30.328 12.928 30.328C14.272 30.328 15.4027 29.9867 16.32 29.304C17.2587 28.6213 17.9413 27.64 18.368 26.36H11.424V22.328H23.328V27.416C22.9227 28.7813 22.2293 30.0507 21.248 31.224C20.288 32.3973 19.0613 33.3467 17.568 34.072C16.0747 34.7973 14.3893 35.16 12.512 35.16C10.2933 35.16 8.30933 34.68 6.56 33.72C4.832 32.7387 3.47733 31.384 2.496 29.656C1.536 27.928 1.056 25.9547 1.056 23.736C1.056 21.5173 1.536 19.544 2.496 17.816C3.47733 16.0667 4.832 14.712 6.56 13.752C8.288 12.7707 10.2613 12.28 12.48 12.28C15.168 12.28 17.4293 12.9307 19.264 14.232C21.12 15.5333 22.3467 17.336 22.944 19.64H16.896ZM25.271 26.04C25.271 24.2053 25.6123 22.5947 26.295 21.208C26.999 19.8213 27.9483 18.7547 29.143 18.008C30.3377 17.2613 31.671 16.888 33.143 16.888C34.4017 16.888 35.5003 17.144 36.439 17.656C37.399 18.168 38.135 18.84 38.647 19.672V17.144H44.119V35H38.647V32.472C38.1137 33.304 37.367 33.976 36.407 34.488C35.4683 35 34.3697 35.256 33.111 35.256C31.6603 35.256 30.3377 34.8827 29.143 34.136C27.9483 33.368 26.999 32.2907 26.295 30.904C25.6123 29.496 25.271 27.8747 25.271 26.04ZM38.647 26.072C38.647 24.7067 38.263 23.6293 37.495 22.84C36.7483 22.0507 35.831 21.656 34.743 21.656C33.655 21.656 32.727 22.0507 31.959 22.84C31.2123 23.608 30.839 24.6747 30.839 26.04C30.839 27.4053 31.2123 28.4933 31.959 29.304C32.727 30.0933 33.655 30.488 34.743 30.488C35.831 30.488 36.7483 30.0933 37.495 29.304C38.263 28.5147 38.647 27.4373 38.647 26.072ZM70.8618 16.952C73.0804 16.952 74.8404 17.624 76.1418 18.968C77.4644 20.312 78.1258 22.1787 78.1258 24.568V35H72.6858V25.304C72.6858 24.152 72.3764 23.2667 71.7578 22.648C71.1604 22.008 70.3284 21.688 69.2618 21.688C68.1951 21.688 67.3524 22.008 66.7338 22.648C66.1364 23.2667 65.8378 24.152 65.8378 25.304V35H60.3978V25.304C60.3978 24.152 60.0884 23.2667 59.4698 22.648C58.8724 22.008 58.0404 21.688 56.9738 21.688C55.9071 21.688 55.0644 22.008 54.4458 22.648C53.8484 23.2667 53.5498 24.152 53.5498 25.304V35H48.0778V17.144H53.5498V19.384C54.1044 18.6373 54.8298 18.0507 55.7258 17.624C56.6218 17.176 57.6351 16.952 58.7658 16.952C60.1098 16.952 61.3044 17.24 62.3498 17.816C63.4164 18.392 64.2484 19.2133 64.8458 20.28C65.4644 19.2987 66.3071 18.4987 67.3738 17.88C68.4404 17.2613 69.6031 16.952 70.8618 16.952ZM98.7847 25.784C98.7847 26.296 98.7528 26.8293 98.6888 27.384H86.3048C86.3901 28.4933 86.7421 29.3467 87.3608 29.944C88.0008 30.52 88.7794 30.808 89.6968 30.808C91.0621 30.808 92.0114 30.232 92.5448 29.08H98.3688C98.0701 30.2533 97.5261 31.3093 96.7368 32.248C95.9688 33.1867 94.9981 33.9227 93.8248 34.456C92.6514 34.9893 91.3394 35.256 89.8888 35.256C88.1394 35.256 86.5821 34.8827 85.2168 34.136C83.8514 33.3893 82.7848 32.3227 82.0168 30.936C81.2488 29.5493 80.8648 27.928 80.8648 26.072C80.8648 24.216 81.2381 22.5947 81.9848 21.208C82.7528 19.8213 83.8194 18.7547 85.1848 18.008C86.5501 17.2613 88.1181 16.888 89.8888 16.888C91.6168 16.888 93.1528 17.2507 94.4968 17.976C95.8408 18.7013 96.8861 19.736 97.6328 21.08C98.4008 22.424 98.7847 23.992 98.7847 25.784ZM93.1848 24.344C93.1848 23.4053 92.8648 22.6587 92.2248 22.104C91.5848 21.5493 90.7848 21.272 89.8248 21.272C88.9074 21.272 88.1288 21.5387 87.4888 22.072C86.8701 22.6053 86.4861 23.3627 86.3368 24.344H93.1848ZM108.936 35.256C107.378 35.256 105.992 34.9893 104.776 34.456C103.56 33.9227 102.6 33.1973 101.896 32.28C101.192 31.3413 100.797 30.296 100.712 29.144H106.12C106.184 29.7627 106.472 30.264 106.984 30.648C107.496 31.032 108.125 31.224 108.872 31.224C109.554 31.224 110.077 31.096 110.44 30.84C110.824 30.5627 111.016 30.2107 111.016 29.784C111.016 29.272 110.749 28.8987 110.216 28.664C109.682 28.408 108.818 28.1307 107.624 27.832C106.344 27.5333 105.277 27.224 104.424 26.904C103.57 26.5627 102.834 26.04 102.216 25.336C101.597 24.6107 101.288 23.64 101.288 22.424C101.288 21.4 101.565 20.472 102.12 19.64C102.696 18.7867 103.528 18.1147 104.616 17.624C105.725 17.1333 107.037 16.888 108.552 16.888C110.792 16.888 112.552 17.4427 113.832 18.552C115.133 19.6613 115.88 21.1333 116.072 22.968H111.016C110.93 22.3493 110.653 21.8587 110.184 21.496C109.736 21.1333 109.138 20.952 108.392 20.952C107.752 20.952 107.261 21.08 106.92 21.336C106.578 21.5707 106.408 21.9013 106.408 22.328C106.408 22.84 106.674 23.224 107.208 23.48C107.762 23.736 108.616 23.992 109.768 24.248C111.09 24.5893 112.168 24.9307 113 25.272C113.832 25.592 114.557 26.1253 115.176 26.872C115.816 27.5973 116.146 28.5787 116.168 29.816C116.168 30.8613 115.869 31.8 115.272 32.632C114.696 33.4427 113.853 34.0827 112.744 34.552C111.656 35.0213 110.386 35.256 108.936 35.256ZM124.987 30.776H132.155V35H119.515V12.536H124.987V30.776ZM137.517 15.288C136.557 15.288 135.768 15.0107 135.149 14.456C134.552 13.88 134.253 13.176 134.253 12.344C134.253 11.4907 134.552 10.7867 135.149 10.232C135.768 9.656 136.557 9.368 137.517 9.368C138.456 9.368 139.224 9.656 139.821 10.232C140.44 10.7867 140.749 11.4907 140.749 12.344C140.749 13.176 140.44 13.88 139.821 14.456C139.224 15.0107 138.456 15.288 137.517 15.288ZM140.237 17.144V35H134.765V17.144H140.237ZM151.467 35.256C149.909 35.256 148.523 34.9893 147.307 34.456C146.091 33.9227 145.131 33.1973 144.427 32.28C143.723 31.3413 143.328 30.296 143.243 29.144H148.651C148.715 29.7627 149.003 30.264 149.515 30.648C150.027 31.032 150.656 31.224 151.403 31.224C152.085 31.224 152.608 31.096 152.971 30.84C153.355 30.5627 153.547 30.2107 153.547 29.784C153.547 29.272 153.28 28.8987 152.747 28.664C152.213 28.408 151.349 28.1307 150.155 27.832C148.875 27.5333 147.808 27.224 146.955 26.904C146.101 26.5627 145.365 26.04 144.747 25.336C144.128 24.6107 143.819 23.64 143.819 22.424C143.819 21.4 144.096 20.472 144.651 19.64C145.227 18.7867 146.059 18.1147 147.147 17.624C148.256 17.1333 149.568 16.888 151.083 16.888C153.323 16.888 155.083 17.4427 156.363 18.552C157.664 19.6613 158.411 21.1333 158.603 22.968H153.547C153.461 22.3493 153.184 21.8587 152.715 21.496C152.267 21.1333 151.669 20.952 150.923 20.952C150.283 20.952 149.792 21.08 149.451 21.336C149.109 21.5707 148.939 21.9013 148.939 22.328C148.939 22.84 149.205 23.224 149.739 23.48C150.293 23.736 151.147 23.992 152.299 24.248C153.621 24.5893 154.699 24.9307 155.531 25.272C156.363 25.592 157.088 26.1253 157.707 26.872C158.347 27.5973 158.677 28.5787 158.699 29.816C158.699 30.8613 158.4 31.8 157.803 32.632C157.227 33.4427 156.384 34.0827 155.275 34.552C154.187 35.0213 152.917 35.256 151.467 35.256ZM171.999 30.36V35H169.215C167.231 35 165.684 34.52 164.575 33.56C163.465 32.5787 162.911 30.9893 162.911 28.792V21.688H160.735V17.144H162.911V12.792H168.383V17.144H171.967V21.688H168.383V28.856C168.383 29.3893 168.511 29.7733 168.767 30.008C169.023 30.2427 169.449 30.36 170.047 30.36H171.999Z" fill="#003BFF"/>
<g clip-path="url(#clip0_182_124)">
<path d="M206.96 31.4199C203.692 30.6621 201.31 31.8862 199.239 34.2868C198.29 35.39 196.894 36.1736 195.61 36.9659C191.429 39.5565 186.101 36.9875 186.002 31.7977C185.953 29.9684 186.167 28.1413 186.639 26.3682C187.538 23.1516 188.638 19.9824 189.825 16.8521C190.291 15.6302 191.112 14.4947 191.942 13.4433C194.676 9.97194 198.306 9.06739 202.37 10.9887C205.518 12.4762 208.464 12.4589 211.601 10.9887C215.665 9.07603 219.263 10.0022 222.034 13.4584C223.864 15.7403 225.002 18.3547 225.857 21.0921C226.918 24.5311 228.124 27.9507 228 31.6099C227.89 34.8848 226.201 37.0069 223.142 37.8273C221.604 38.2375 220.178 37.9007 218.809 37.2271C216.436 36.0592 214.52 34.3429 212.766 32.4626C212.051 31.6984 211.293 31.3422 210.225 31.4113C209.157 31.4803 208.046 31.4199 206.96 31.4199ZM187.844 30.1419C187.894 32.549 188.049 34.4854 190.125 35.6253C192.238 36.7867 194.067 35.975 195.706 34.7164C197.239 33.511 198.705 32.2283 200.096 30.8737C200.996 30.0102 201.999 29.5374 203.28 29.546C205.753 29.5647 208.226 29.5647 210.702 29.546C211.284 29.5301 211.862 29.638 212.396 29.8619C212.929 30.0859 213.404 30.4203 213.787 30.8413C214.526 31.6508 215.321 32.4117 216.166 33.1189C217.291 34.0062 218.431 34.9129 219.699 35.5735C222.432 36.994 225.225 35.6987 225.87 32.767C226.06 31.9228 226.11 31.0549 226.017 30.1958C225.421 25.1917 224.02 20.4099 221.483 15.9735C221.116 15.3467 220.686 14.7553 220.201 14.2076C218.074 11.7681 215.544 11.1291 212.591 12.5712C208.781 14.4321 205.129 14.4127 201.319 12.5561C198.396 11.1312 195.922 11.7594 193.799 14.1644C193.236 14.79 192.741 15.4701 192.324 16.1937C189.785 20.6819 188.555 25.5457 187.849 30.1419H187.844Z" fill="#003BFF"/>
<path d="M196.907 19.8291C196.907 19.1405 196.95 18.5338 196.907 17.9402C196.831 17.0529 197.406 17.0551 198.054 17.0766C198.663 17.0896 199.302 16.9924 199.23 17.9143C199.185 18.5122 199.23 19.1167 199.23 19.7838C199.594 19.8054 199.849 19.8291 200.1 19.8313C202.183 19.8658 202.183 19.8658 201.837 22.0268L199.363 22.1412C199.235 22.9875 199.291 23.8402 198.924 24.462C198.758 24.7426 197.748 24.5656 196.995 24.6023C196.95 23.7776 196.909 23.0415 196.862 22.1693C196.33 22.1077 195.794 22.0861 195.259 22.1045C194.323 22.2017 194.103 21.8023 194.134 20.9863C194.157 20.2458 194.208 19.691 195.216 19.8248C195.779 19.8587 196.344 19.8601 196.907 19.8291Z" fill="#003BFF"/>
<path d="M206.946 28.0802C206.238 28.0802 205.509 28.1773 204.832 28.0392C204.631 27.9696 204.449 27.855 204.303 27.7049C204.157 27.5547 204.05 27.3733 203.991 27.1756C203.953 26.936 204.475 26.379 204.769 26.3617C206.257 26.2765 207.748 26.2765 209.235 26.3617C209.516 26.379 209.971 26.9317 209.966 27.2253C209.962 27.5189 209.499 27.9787 209.175 28.0348C208.453 28.1579 207.693 28.0737 206.946 28.0737V28.0802Z" fill="#003BFF"/>
<path d="M214.965 20.9712C214.926 21.3462 214.744 21.6941 214.453 21.9473C214.162 22.2006 213.784 22.3412 213.391 22.342C212.978 22.3159 212.592 22.1344 212.317 21.837C212.042 21.5396 211.9 21.1502 211.923 20.7531C211.955 20.3764 212.136 20.0257 212.428 19.7728C212.721 19.5199 213.103 19.3841 213.497 19.3931C213.702 19.4032 213.902 19.4522 214.087 19.5372C214.272 19.6222 214.437 19.7416 214.574 19.8883C214.71 20.035 214.815 20.2062 214.882 20.3921C214.95 20.578 214.978 20.7748 214.965 20.9712Z" fill="#003BFF"/>
<path d="M218.215 19.3909C218.42 19.388 218.623 19.424 218.813 19.4968C219.003 19.5696 219.176 19.6777 219.322 19.8149C219.468 19.9522 219.585 20.1158 219.665 20.2965C219.745 20.4771 219.788 20.6712 219.789 20.8675C219.775 21.2463 219.616 21.6068 219.342 21.8798C219.068 22.1527 218.699 22.3189 218.305 22.3463C217.91 22.3477 217.528 22.2061 217.236 21.9497C216.945 21.6933 216.764 21.3409 216.731 20.9625C216.717 20.7649 216.744 20.5667 216.812 20.3796C216.88 20.1925 216.986 20.0204 217.125 19.8737C217.263 19.7269 217.431 19.6085 217.619 19.5256C217.806 19.4426 218.009 19.3968 218.215 19.3909Z" fill="#003BFF"/>
<path d="M217.379 18.4885C217.384 18.8849 217.227 19.2675 216.941 19.5538C216.656 19.8402 216.264 20.0073 215.852 20.0191C215.459 20.0044 215.086 19.8518 214.803 19.5904C214.519 19.3289 214.346 18.9768 214.316 18.6008C214.311 18.2044 214.468 17.822 214.754 17.5361C215.04 17.2502 215.432 17.0836 215.845 17.0723C216.239 17.0813 216.615 17.2318 216.899 17.494C217.183 17.7562 217.354 18.111 217.379 18.4885Z" fill="#003BFF"/>
<path d="M217.379 23.171C217.358 23.5505 217.187 23.9081 216.9 24.1697C216.613 24.4313 216.232 24.5769 215.836 24.5764C215.63 24.5737 215.427 24.5314 215.239 24.452C215.051 24.3725 214.882 24.2576 214.741 24.1141C214.6 23.9705 214.49 23.8011 214.419 23.6162C214.347 23.4312 214.315 23.2343 214.325 23.0372C214.337 22.8486 214.389 22.6643 214.476 22.4948C214.563 22.3254 214.684 22.1741 214.832 22.0495C214.98 21.925 215.153 21.8298 215.339 21.7692C215.526 21.7086 215.723 21.6839 215.919 21.6965C216.315 21.71 216.69 21.872 216.962 22.1477C217.235 22.4234 217.385 22.7908 217.379 23.171Z" fill="#003BFF"/>
</g>
<defs>
<clipPath id="clip0_182_124">
<rect width="42" height="28" fill="white" transform="translate(186 10)"/>
</clipPath>
</defs>
</svg>
