<svg width="108" height="17" viewBox="0 0 108 17" fill="none" xmlns="http://www.w3.org/2000/svg">
<path d="M13.2812 0.449219V15H10L4.74609 7.36328H4.64844V15H0.703125V0.449219H4.0625L9.21875 8.06641H9.33594V0.449219H13.2812ZM19.9805 15.1953C18.8151 15.1953 17.8092 14.974 16.9629 14.5312C16.123 14.082 15.4785 13.4375 15.0293 12.5977C14.5801 11.7578 14.3555 10.7487 14.3555 9.57031C14.3555 8.44401 14.5801 7.46094 15.0293 6.62109C15.485 5.77474 16.1263 5.11719 16.9531 4.64844C17.7799 4.17969 18.7565 3.94531 19.8828 3.94531C20.7096 3.94531 21.4551 4.07552 22.1191 4.33594C22.7897 4.58984 23.3626 4.96094 23.8379 5.44922C24.3132 5.93099 24.6777 6.51693 24.9316 7.20703C25.1855 7.89714 25.3125 8.67839 25.3125 9.55078V10.4492H15.5664V8.30078H23.4766L21.6406 8.75C21.6406 8.30729 21.5755 7.9362 21.4453 7.63672C21.3151 7.33073 21.123 7.09961 20.8691 6.94336C20.6152 6.7806 20.2995 6.69922 19.9219 6.69922C19.5443 6.69922 19.2285 6.7806 18.9746 6.94336C18.7207 7.09961 18.5286 7.33073 18.3984 7.63672C18.2682 7.9362 18.2031 8.30729 18.2031 8.75V10.3125C18.2031 10.7422 18.278 11.1165 18.4277 11.4355C18.584 11.7546 18.8021 12.002 19.082 12.1777C19.362 12.3535 19.6875 12.4414 20.0586 12.4414C20.3255 12.4414 20.5664 12.4056 20.7812 12.334C21.0026 12.2559 21.1914 12.1452 21.3477 12.002C21.5039 11.8587 21.6211 11.6862 21.6992 11.4844H25.2734C25.1497 12.2396 24.86 12.8971 24.4043 13.457C23.9551 14.0104 23.3561 14.4401 22.6074 14.7461C21.8652 15.0456 20.9896 15.1953 19.9805 15.1953ZM29.4141 4.08203L30.9961 7.48047L32.6758 4.08203H36.582L33.6523 9.55078L36.7188 15H32.8516L30.9961 11.543L29.2188 15H25.293L28.3984 9.55078L25.4883 4.08203H29.4141ZM44.0039 4.08203V6.93359H36.8164V4.08203H44.0039ZM38.2031 1.48438H42.1289V11.4844C42.1289 11.7122 42.1875 11.8848 42.3047 12.002C42.4219 12.1126 42.6107 12.168 42.8711 12.168C42.9883 12.168 43.125 12.1549 43.2812 12.1289C43.444 12.1029 43.5612 12.0768 43.6328 12.0508L44.1992 14.8242C43.75 14.9479 43.3431 15.0358 42.9785 15.0879C42.6139 15.14 42.2559 15.166 41.9043 15.166C40.6803 15.166 39.7559 14.8861 39.1309 14.3262C38.5124 13.7663 38.2031 12.9427 38.2031 11.8555V1.48438ZM53.2812 16.3281L51.2695 14.3164L55.4688 10.1172H46.3477V7.16797H55.4688L51.2695 2.94922L53.2812 0.957031L60.957 8.63281L53.2812 16.3281ZM70.3516 15.1953C69.0234 15.1953 67.8288 14.9089 66.7676 14.3359C65.7129 13.763 64.8763 12.9232 64.2578 11.8164C63.6458 10.7031 63.3398 9.34245 63.3398 7.73438C63.3398 6.11328 63.6523 4.74609 64.2773 3.63281C64.9023 2.51953 65.7454 1.67969 66.8066 1.11328C67.8678 0.540365 69.0495 0.253906 70.3516 0.253906C71.2695 0.253906 72.1159 0.380859 72.8906 0.634766C73.6654 0.882161 74.3424 1.25 74.9219 1.73828C75.5078 2.22005 75.9766 2.8125 76.3281 3.51562C76.6797 4.21224 76.8945 5.01302 76.9727 5.91797H72.9688C72.9427 5.58594 72.8678 5.2832 72.7441 5.00977C72.627 4.73633 72.4609 4.50195 72.2461 4.30664C72.0378 4.11133 71.7839 3.96159 71.4844 3.85742C71.1914 3.74674 70.8529 3.69141 70.4688 3.69141C69.8112 3.69141 69.2513 3.85417 68.7891 4.17969C68.3333 4.4987 67.9883 4.96094 67.7539 5.56641C67.5195 6.16536 67.4023 6.88802 67.4023 7.73438C67.4023 8.61979 67.5228 9.36198 67.7637 9.96094C68.0046 10.5599 68.3496 11.0091 68.7988 11.3086C69.2546 11.6081 69.8047 11.7578 70.4492 11.7578C70.8138 11.7578 71.1393 11.7122 71.4258 11.6211C71.7122 11.5299 71.9629 11.3965 72.1777 11.2207C72.3926 11.0449 72.5651 10.8333 72.6953 10.5859C72.832 10.3385 72.9232 10.0586 72.9688 9.74609H76.9727C76.9271 10.3646 76.7546 10.9961 76.4551 11.6406C76.1621 12.2786 75.7389 12.8678 75.1855 13.4082C74.6387 13.9421 73.9616 14.375 73.1543 14.707C72.3535 15.0326 71.4193 15.1953 70.3516 15.1953ZM81.4062 15.1758C80.7096 15.1758 80.0911 15.0618 79.5508 14.834C79.0169 14.5996 78.6003 14.248 78.3008 13.7793C78.0013 13.3105 77.8516 12.7148 77.8516 11.9922C77.8516 11.3932 77.9525 10.8822 78.1543 10.459C78.3561 10.0358 78.6393 9.69076 79.0039 9.42383C79.3685 9.15039 79.7917 8.94206 80.2734 8.79883C80.7617 8.64909 81.2891 8.55469 81.8555 8.51562C82.4674 8.47005 82.9557 8.41471 83.3203 8.34961C83.6914 8.28451 83.9583 8.1901 84.1211 8.06641C84.2904 7.9362 84.375 7.76693 84.375 7.55859V7.51953C84.375 7.23958 84.2676 7.02474 84.0527 6.875C83.8379 6.71875 83.5612 6.64062 83.2227 6.64062C82.8451 6.64062 82.5391 6.72201 82.3047 6.88477C82.0703 7.04753 81.9271 7.29818 81.875 7.63672H78.2812C78.3268 6.97266 78.5352 6.36068 78.9062 5.80078C79.2839 5.24089 79.834 4.79167 80.5566 4.45312C81.2858 4.11458 82.194 3.94531 83.2812 3.94531C84.056 3.94531 84.7526 4.03646 85.3711 4.21875C85.9896 4.40104 86.5169 4.65495 86.9531 4.98047C87.3893 5.30599 87.7214 5.68685 87.9492 6.12305C88.1836 6.55273 88.3008 7.01823 88.3008 7.51953V15H84.6289V13.457H84.5508C84.3294 13.8672 84.0625 14.1992 83.75 14.4531C83.444 14.7005 83.0957 14.8828 82.7051 15C82.3145 15.1172 81.8815 15.1758 81.4062 15.1758ZM82.6758 12.6953C82.9753 12.6953 83.2552 12.6335 83.5156 12.5098C83.7826 12.3861 83.9974 12.2103 84.1602 11.9824C84.3294 11.748 84.4141 11.4648 84.4141 11.1328V10.2344C84.3099 10.2734 84.1992 10.3125 84.082 10.3516C83.9648 10.3906 83.8379 10.4264 83.7012 10.459C83.571 10.4915 83.4342 10.5208 83.291 10.5469C83.1543 10.5729 83.0078 10.599 82.8516 10.625C82.5456 10.6706 82.2949 10.7487 82.0996 10.8594C81.9108 10.9635 81.7708 11.0938 81.6797 11.25C81.5885 11.3997 81.543 11.569 81.543 11.7578C81.543 12.0638 81.6471 12.2982 81.8555 12.4609C82.0703 12.6172 82.3438 12.6953 82.6758 12.6953ZM99.7852 7.63672H96.1914C96.1654 7.30469 96.0059 7.04427 95.7129 6.85547C95.4264 6.66016 95.0911 6.5625 94.707 6.5625C94.3685 6.5625 94.082 6.62435 93.8477 6.74805C93.6133 6.86523 93.4961 7.03776 93.4961 7.26562C93.4961 7.42839 93.5645 7.58138 93.7012 7.72461C93.8444 7.86784 94.1211 7.97526 94.5312 8.04688L96.7578 8.4375C97.8711 8.63281 98.7012 8.97135 99.248 9.45312C99.8014 9.9349 100.078 10.5794 100.078 11.3867C100.078 12.168 99.8503 12.8451 99.3945 13.418C98.9388 13.9844 98.3138 14.4238 97.5195 14.7363C96.7318 15.0423 95.8333 15.1953 94.8242 15.1953C93.1576 15.1953 91.8522 14.8568 90.9082 14.1797C89.9707 13.4961 89.4466 12.5977 89.3359 11.4844H93.2227C93.2812 11.8294 93.457 12.0964 93.75 12.2852C94.043 12.4674 94.4076 12.5586 94.8438 12.5586C95.2083 12.5586 95.5078 12.4967 95.7422 12.373C95.9766 12.2493 96.0938 12.0768 96.0938 11.8555C96.0938 11.4714 95.6771 11.2044 94.8438 11.0547L92.9102 10.7031C91.8034 10.5013 90.9733 10.1335 90.4199 9.59961C89.8665 9.05924 89.5898 8.35938 89.5898 7.5C89.5898 6.73828 89.7917 6.09375 90.1953 5.56641C90.6055 5.03906 91.1849 4.63867 91.9336 4.36523C92.6888 4.08529 93.5872 3.94531 94.6289 3.94531C96.2044 3.94531 97.4447 4.27409 98.3496 4.93164C99.2611 5.58268 99.7396 6.48438 99.7852 7.63672ZM107.617 4.08203V6.93359H100.43V4.08203H107.617ZM101.816 1.48438H105.742V11.4844C105.742 11.7122 105.801 11.8848 105.918 12.002C106.035 12.1126 106.224 12.168 106.484 12.168C106.602 12.168 106.738 12.1549 106.895 12.1289C107.057 12.1029 107.174 12.0768 107.246 12.0508L107.812 14.8242C107.363 14.9479 106.956 15.0358 106.592 15.0879C106.227 15.14 105.869 15.166 105.518 15.166C104.294 15.166 103.369 14.8861 102.744 14.3262C102.126 13.7663 101.816 12.9427 101.816 11.8555V1.48438Z" fill="black"/>
</svg>
