<svg width="312" height="349" viewBox="0 0 312 349" fill="none" xmlns="http://www.w3.org/2000/svg">
<path d="M9.35066 348.04C4.18598 348.04 0 343.854 0 338.689V156.944C0 153.612 0.10599 150.334 0.317938 147.199C0.423912 145.159 0.60158 142.974 0.849373 140.648C0.888334 140.195 0.958471 139.617 1.03172 139.049C1.35743 136.107 1.76729 133.235 2.24573 130.511C2.84573 126.934 3.60004 123.272 4.479 119.706C7.74862 106.3 12.8354 93.359 19.5928 81.2577C20.3829 79.7959 21.3257 78.1611 22.3356 76.5107C23.679 74.2899 25.0847 72.0878 26.4873 70.0058C33.5159 59.5221 41.8769 49.8582 51.3273 41.3086C54.7668 38.1777 58.437 35.1402 62.2115 32.2961C73.3638 23.8914 85.5711 17.0342 98.4937 11.9179C100.881 10.9672 103.319 10.0664 105.72 9.24981C121.864 3.75006 138.783 0.960449 156 0.960449C172.702 0.960449 189.108 3.57707 204.762 8.73864C206.347 9.26227 207.893 9.79683 209.394 10.3392C216.787 6.08462 225.085 3.56773 233.668 3.00981C234.889 2.93033 236.126 2.88981 237.343 2.88981C266.731 2.88981 291.247 25.8815 293.156 55.2317C293.644 62.7247 292.607 70.266 290.148 77.318C300.474 94.6494 307.224 113.521 310.23 133.483C311.404 141.244 312 149.14 312 156.944V338.689C312 343.854 307.813 348.04 302.65 348.04H9.35066Z" fill="white"/>
<path d="M303.447 156.944V338.689H10.1475V156.944C10.1475 153.873 10.241 150.834 10.4436 147.827C10.5527 145.754 10.7241 143.697 10.9422 141.64C10.989 141.141 11.0514 140.642 11.1137 140.159C11.4098 137.463 11.7838 134.783 12.2514 132.133C12.828 128.689 13.5293 125.292 14.3552 121.941C17.4721 109.162 22.2877 97.037 28.5527 85.8162C29.3631 84.3201 30.2202 82.8396 31.1085 81.3902C32.3708 79.3019 33.68 77.2447 35.0358 75.2344C41.6904 65.3071 49.5449 56.2525 58.3969 48.2421C61.6696 45.2655 65.0982 42.4291 68.6359 39.7642C79.0151 31.9408 90.4541 25.4733 102.735 20.6109C104.963 19.7226 107.238 18.881 109.529 18.1018C124.35 13.0524 140.262 10.3096 156.797 10.3096C172.802 10.3096 188.215 12.8654 202.631 17.6187C205.514 18.5693 208.382 19.5979 211.187 20.72C211.202 20.7356 211.233 20.7356 211.249 20.7512C222.922 25.4109 233.846 31.5512 243.805 38.9226C244.553 39.4681 245.285 40.0135 246.002 40.5746C246.75 41.1512 247.483 41.7122 248.215 42.32C249.041 42.959 249.852 43.6135 250.647 44.2992C252.641 45.9356 254.574 47.6343 256.459 49.3954C257.504 50.346 258.517 51.3278 259.53 52.3408C259.841 52.6369 260.169 52.9486 260.48 53.2603C261.774 54.5538 263.036 55.8629 264.283 57.2031C265.327 58.3252 266.34 59.4629 267.353 60.6161C272.169 66.133 276.579 72.024 280.522 78.2266C291.275 95.0889 298.678 114.273 301.779 134.876C302.87 142.076 303.447 149.447 303.447 156.944Z" fill="#FF96D3"/>
<path d="M155.642 37.2287L158.764 38.1419C159.499 38.357 159.509 39.398 158.774 39.624L155.728 40.5669C150.791 42.0942 146.876 45.8796 145.179 50.7607L143.762 54.8391C143.514 55.5513 142.5 55.5264 142.288 54.8033L141.332 51.5368C139.776 46.2162 135.616 42.0568 130.296 40.4999L127.244 39.6069C126.501 39.3903 126.501 38.3383 127.244 38.1217L130.296 37.2287C135.616 35.6718 139.776 31.5108 141.332 26.1918L142.225 23.1403C142.442 22.3985 143.494 22.3985 143.711 23.1403L144.604 26.1918C146.162 31.5108 150.322 35.6718 155.642 37.2287Z" fill="white"/>
<path d="M86.0316 72.6331L88.4066 73.3282C88.9661 73.4918 88.9739 74.2835 88.416 74.4565L86.0986 75.1734C82.3427 76.336 79.3646 79.2144 78.0742 82.9282L76.9973 86.0295C76.8087 86.5703 76.0373 86.5515 75.8768 86.0014L75.1489 83.5173C73.9645 79.47 70.8009 76.3048 66.7536 75.1219L64.4331 74.4425C63.8674 74.2773 63.8674 73.4778 64.4331 73.3126L66.7536 72.6331C70.8009 71.4487 73.9645 68.2835 75.1489 64.2378L75.8284 61.9173C75.9936 61.3531 76.7931 61.3531 76.9583 61.9173L77.6378 64.2378C78.8207 68.2835 81.9843 71.4487 86.0316 72.6331Z" fill="white"/>
<path d="M303.447 243.204V338.689H10.1475V249.562L303.447 243.204Z" fill="#FF4B00"/>
<path opacity="0.15" d="M251.059 320.075C251.059 322.65 226.014 324.737 195.12 324.737C164.227 324.737 139.183 322.65 139.183 320.075C139.183 317.501 164.227 315.414 195.12 315.414C226.014 315.414 251.059 317.501 251.059 320.075Z" fill="#3333CB"/>
<path d="M271.601 302.385C265.246 302.385 258.507 299.094 252.768 293.106L256.475 289.553C258.989 292.176 265.678 298.162 273.297 297.138C277.095 296.627 280.83 294.306 283.816 290.602C288.116 285.264 291.984 276.463 291.057 269.966C290.65 267.113 289.377 264.975 287.162 263.429C284.889 261.844 281.616 261.448 278.404 262.37C272.995 263.924 268.876 268.431 265.243 272.407L261.451 268.942C265.341 264.686 270.183 259.391 276.986 257.435C281.67 256.09 286.57 256.754 290.1 259.218C293.499 261.591 295.531 264.962 296.141 269.242C297.325 277.557 292.654 287.814 287.814 293.821C284 298.556 279.088 301.54 273.983 302.226C273.197 302.334 272.401 302.385 271.601 302.385Z" fill="white"/>
<path d="M174.799 243.524H275.75L252.216 316.52C250.874 320.68 247.005 323.499 242.635 323.499H206.638C202.466 323.499 198.726 320.926 197.234 317.028L174.799 243.524Z" fill="white"/>
<path d="M177.42 244.837H274C274 244.837 256.082 255.325 226.146 255.107C196.212 254.887 177.42 244.837 177.42 244.837Z" fill="#3333CB"/>
<path d="M116.573 236.495L111.407 271.787L91.6881 278.418C90.7032 278.75 90.9416 280.206 91.9811 280.206H150.22C151.25 280.206 151.498 278.771 150.529 278.425L132.864 272.111L126.505 237.143L116.573 236.495Z" fill="#3333CB"/>
<path d="M256.711 83.7746V235.832C256.711 237.157 255.651 238.216 254.326 238.216H10.1494V156.943C10.1494 153.873 10.2429 150.834 10.4455 147.827C10.5546 145.754 10.726 143.697 10.9442 141.64C10.9909 141.141 11.0533 140.642 11.1156 140.159C11.4117 137.463 11.7858 134.782 12.2533 132.133C12.8299 128.689 13.5312 125.291 14.3572 121.941C17.4741 109.162 22.2897 97.0369 28.5546 85.8161C29.365 84.32 30.2221 82.8395 31.1105 81.3901H254.326C255.651 81.3901 256.711 82.4499 256.711 83.7746Z" fill="#3333CB"/>
<path d="M121.343 227.354C119.036 227.354 117.166 229.224 117.166 231.531C117.166 233.822 119.036 235.692 121.343 235.692C123.634 235.692 125.504 233.822 125.504 231.531C125.504 229.224 123.634 227.354 121.343 227.354ZM121.343 235.302C119.254 235.302 117.556 233.603 117.556 231.531C117.556 229.442 119.254 227.744 121.343 227.744C123.431 227.744 125.114 229.442 125.114 231.531C125.114 233.603 123.431 235.302 121.343 235.302Z" fill="white"/>
<path d="M249.823 85.8159V224.58H10.1494V156.943C10.1494 153.873 10.2429 150.834 10.4455 147.826C10.5546 145.754 10.726 143.697 10.9442 141.639C10.9909 141.141 11.0533 140.642 11.1156 140.159C11.4117 137.463 11.7858 134.782 12.2533 132.133C12.8299 128.689 13.5312 125.291 14.3572 121.941C17.4741 109.161 22.2897 97.0367 28.5546 85.8159H249.823Z" fill="#FFC410"/>
<path d="M237.377 99.002V209.472C237.377 214.081 233.641 217.816 229.035 217.816H35.1129C30.5045 217.816 26.7705 214.081 26.7705 209.472V99.002H237.377Z" fill="white"/>
<path d="M237.379 99.002H26.7705V115.702H237.379V99.002Z" fill="#00DDB5"/>
<path d="M68.7327 148.737L68.7405 150.684L78.1956 150.783L78.2034 154.075L68.7623 153.975L68.7701 155.937L78.2112 156.021L78.219 159.313L68.7779 159.229L68.7857 161.175L78.2267 161.258L78.2361 166.078C78.2626 173.664 71.848 179.811 63.9592 179.728C56.0844 179.661 49.62 173.4 49.5935 165.797L49.5701 160.993L59.4319 161.077L59.4241 159.13L49.5623 159.031L49.5545 155.755L59.4164 155.839L59.4101 153.893L49.5483 153.793L49.5405 150.501L59.4023 150.601L59.3961 148.655L49.5343 148.555L49.5265 146.608C49.5031 140.551 53.594 135.394 59.2574 133.605L59.3368 140.867L61.0044 140.869L60.9187 133.189C61.6995 133.034 62.4974 132.942 63.3234 132.927L63.4106 140.869L65.0782 140.87L64.9909 132.989C65.7171 133.051 66.4278 133.161 67.126 133.33L67.2101 140.872L68.8777 140.873L68.7997 133.843C70.7509 134.571 72.4886 135.685 73.9395 137.091C76.5483 139.611 78.1675 143.105 78.18 146.875L78.1878 148.837L68.7327 148.737Z" fill="#3333CB"/>
<path d="M85.693 163.269L84.0021 163.268L83.9989 162.002C83.9974 161.298 83.4581 160.721 82.7958 160.715C82.7927 160.715 82.7896 160.715 82.7865 160.715C82.1288 160.715 81.6005 161.279 81.602 161.98L81.6067 163.567C81.6238 168.809 79.9002 173.715 76.7553 177.382C73.6369 181.015 69.5132 182.955 65.0841 182.951L62.7994 182.93C53.6545 182.843 46.1864 174.005 46.1506 163.229C46.149 162.524 45.6098 161.948 44.9475 161.941C44.9443 161.941 44.9412 161.941 44.9381 161.941C44.2804 161.941 43.7521 162.505 43.7537 163.207C43.7537 163.219 43.7552 163.23 43.7552 163.243L42.3729 163.241C41.6576 163.241 41.0841 163.858 41.0919 164.62L41.1152 166.79C41.123 167.552 41.7106 168.17 42.4259 168.17L44.268 168.172C46.2425 177.989 53.8056 185.396 62.8041 185.482L62.9553 185.483L62.9974 198.141C60.7672 199.361 55.8846 202.028 52.7989 203.675C52.2036 203.993 52.3984 205.11 53.0483 205.127L75.7859 205.74C76.4389 205.757 76.6322 204.629 76.0337 204.287L65.3942 198.192L65.3521 185.499C70.3454 185.468 75.0161 183.213 78.5288 179.118C81.1283 176.089 82.855 172.313 83.5906 168.2L85.7428 168.202C86.4582 168.202 87.0317 167.584 87.0239 166.822L86.999 164.653C86.9958 163.888 86.4098 163.271 85.693 163.269Z" fill="#3333CB"/>
<path d="M135.635 140.315C135.059 139.162 134.326 138.242 133.438 137.572C132.55 136.886 131.63 136.372 130.648 136.014C129.667 135.655 128.731 135.484 127.796 135.484H120.783C120.067 135.484 119.521 135.546 119.085 135.671C118.68 135.827 118.399 136.045 118.228 136.372C118.041 136.715 117.916 136.996 117.9 137.245C117.869 137.494 117.854 137.868 117.854 138.367L117.885 156.616C117.869 157.037 117.885 157.333 117.9 157.551C117.916 157.738 117.978 158.019 118.072 158.315C118.165 158.611 118.321 158.814 118.524 158.97C118.726 159.125 119.007 159.25 119.365 159.375C119.724 159.484 120.222 159.546 120.768 159.546C121.485 159.531 122.03 159.453 122.451 159.328C122.856 159.188 123.152 158.985 123.324 158.642C123.495 158.315 123.62 158.035 123.635 157.785C123.682 157.536 123.682 157.146 123.698 156.632V152.923L127.812 152.907C128.716 152.923 129.667 152.736 130.664 152.377C131.646 152.003 132.581 151.489 133.454 150.819C134.357 150.133 135.074 149.229 135.651 148.076C136.212 146.923 136.477 145.614 136.493 144.196C136.477 142.762 136.181 141.499 135.635 140.315ZM129.744 146.377C129.121 146.861 128.467 147.094 127.812 147.094L123.667 147.11L123.682 141.312L127.796 141.281C128.451 141.281 129.121 141.515 129.744 142.045C130.368 142.528 130.711 143.229 130.711 144.18C130.695 145.177 130.383 145.894 129.744 146.377Z" fill="#3333CB"/>
<path d="M164.933 138.632C162.533 136.294 159.712 135.141 156.471 135.141C154.975 135.141 153.51 135.453 152.076 136.045C150.658 136.668 149.395 137.526 148.289 138.601C147.229 139.676 146.325 141.001 145.671 142.606C145.047 144.165 144.689 145.879 144.705 147.687C144.705 151.037 145.889 153.905 148.211 156.32C150.549 158.72 153.401 159.92 156.798 159.905C160.071 159.905 162.86 158.674 165.12 156.227C167.396 153.78 168.518 150.897 168.518 147.531C168.518 143.931 167.333 140.97 164.933 138.632ZM160.834 152.3C159.603 153.484 158.185 154.076 156.611 154.076C155.084 154.107 153.681 153.484 152.419 152.268C151.141 151.068 150.518 149.479 150.533 147.562C150.518 145.583 151.141 143.993 152.403 142.777C153.619 141.562 155.053 140.939 156.611 140.954C158.138 140.954 159.541 141.531 160.819 142.762C162.081 143.962 162.705 145.536 162.705 147.515C162.72 149.51 162.081 151.115 160.834 152.3Z" fill="#3333CB"/>
<path d="M194.605 138.788C192.174 136.513 189.384 135.391 186.205 135.391C185.519 135.391 184.506 135.391 183.166 135.375C181.795 135.359 180.797 135.359 180.143 135.359C179.426 135.375 178.88 135.422 178.46 135.562C178.055 135.687 177.727 135.92 177.556 136.263C177.384 136.575 177.291 136.855 177.275 137.105C177.229 137.354 177.229 137.728 177.229 138.258L177.244 156.507C177.244 157.037 177.26 157.411 177.306 157.707C177.353 158.004 177.478 158.3 177.649 158.596C177.805 158.892 178.117 159.126 178.538 159.235C178.958 159.375 179.473 159.437 180.127 159.437L186.143 159.422C189.509 159.422 192.361 158.237 194.699 155.837C197.052 153.453 198.221 150.585 198.205 147.25C198.205 143.9 196.99 141.079 194.605 138.788ZM190.491 151.863C189.244 153.017 187.81 153.609 186.221 153.609H183.042L183.01 141.188L186.19 141.204C187.842 141.188 189.291 141.78 190.538 142.98C191.769 144.18 192.392 145.645 192.408 147.406C192.408 149.183 191.784 150.663 190.491 151.863Z" fill="#3333CB"/>
<path d="M129.914 184.357C129.618 184.342 129.103 184.544 128.355 184.98L128.137 185.09L127.732 185.417C127.467 185.588 127.031 185.728 126.438 185.884C125.831 186.071 125.176 186.149 124.506 186.149C123.836 186.103 123.15 185.993 122.433 185.744C121.732 185.495 121.046 185.105 120.361 184.606C119.69 184.108 119.145 183.406 118.709 182.518C118.303 181.63 118.101 180.632 118.116 179.526C118.148 178.435 118.35 177.438 118.818 176.58C119.285 175.708 119.846 175.038 120.516 174.57C121.187 174.087 121.872 173.744 122.605 173.495C123.337 173.245 124.054 173.152 124.74 173.152C126.267 173.183 127.483 173.588 128.387 174.352C129.088 174.819 129.649 175.069 130.054 175.084C130.709 175.1 131.519 174.523 132.392 173.339C132.859 172.731 133.093 172.139 133.093 171.593C133.109 171.266 133.015 170.97 132.844 170.674C132.641 170.378 132.47 170.16 132.251 169.973C132.049 169.817 131.737 169.614 131.348 169.349L130.6 168.882C130.039 168.539 129.228 168.212 128.184 167.869C127.124 167.541 126.08 167.354 125.036 167.339C124.054 167.339 122.994 167.464 121.903 167.713C120.812 167.962 119.706 168.383 118.553 168.991C117.415 169.614 116.371 170.362 115.467 171.235C114.563 172.139 113.846 173.292 113.223 174.648C112.646 176.035 112.335 177.578 112.303 179.245C112.288 180.975 112.553 182.58 113.098 184.045C113.659 185.51 114.361 186.71 115.233 187.677C116.137 188.596 117.119 189.422 118.241 190.077C119.363 190.747 120.438 191.23 121.498 191.526C122.574 191.822 123.587 191.947 124.553 191.978C125.644 191.993 126.766 191.853 127.903 191.51C129.01 191.167 129.774 190.903 130.116 190.7C130.506 190.497 130.771 190.326 130.989 190.186C131.581 189.827 132.033 189.516 132.329 189.235C132.61 188.923 132.797 188.565 132.781 188.129C132.797 187.63 132.579 187.006 132.096 186.227C131.332 184.996 130.6 184.357 129.914 184.357Z" fill="#3333CB"/>
<path d="M163.623 188.284L155.083 169.786C154.538 168.663 153.665 168.056 152.48 168.04C151.935 168.025 151.421 168.18 150.906 168.476C150.423 168.757 150.049 169.193 149.8 169.661L140.605 187.864C140.215 188.627 140.013 189.173 140.028 189.562C139.997 190.326 140.621 191.043 141.899 191.697C142.631 192.071 143.27 192.274 143.753 192.29C144.112 192.274 144.408 192.18 144.704 191.978C144.984 191.791 145.187 191.588 145.296 191.386C145.421 191.199 145.608 190.856 145.841 190.435L147.587 186.913L156.688 187.084L158.34 190.638C158.574 191.105 158.714 191.417 158.839 191.635C158.948 191.853 159.151 192.071 159.4 192.274C159.68 192.492 159.992 192.586 160.335 192.601C160.865 192.586 161.488 192.43 162.221 192.071C163.514 191.464 164.138 190.762 164.169 189.967C164.153 189.578 164.013 189.032 163.623 188.284ZM150.034 182.082L152.293 177.64L154.413 182.16L150.034 182.082Z" fill="#3333CB"/>
<path d="M188.106 181.91C188.044 181.739 187.981 181.583 187.888 181.443C187.342 180.445 186.657 179.76 185.831 179.355C185.02 178.934 184.101 178.607 183.135 178.31C182.137 178.014 181.233 177.796 180.407 177.656C179.581 177.516 178.88 177.235 178.35 176.846C177.789 176.487 177.524 175.973 177.54 175.318C177.54 174.773 177.774 174.321 178.257 173.978C178.74 173.666 179.223 173.51 179.753 173.495C180.236 173.495 180.657 173.573 181.015 173.666C181.374 173.76 181.623 173.869 181.794 173.978C181.935 174.071 182.106 174.212 182.293 174.399C182.465 174.586 182.605 174.679 182.667 174.742C183.337 175.178 183.898 175.412 184.35 175.427C185.145 175.427 185.924 174.913 186.688 173.807C187.218 173.058 187.498 172.451 187.498 171.983C187.514 171.562 187.171 171.064 186.516 170.394L186.361 170.269L185.706 169.77C185.285 169.396 184.568 169.038 183.478 168.679C182.402 168.336 181.187 168.134 179.878 168.118C177.415 168.087 175.436 168.757 173.971 170.175C172.537 171.578 171.774 173.261 171.742 175.178C171.711 176.565 171.976 177.765 172.522 178.794C173.052 179.791 173.753 180.523 174.563 180.991C175.405 181.49 176.293 181.895 177.244 182.253C178.21 182.612 179.098 182.877 179.924 183.048C180.75 183.204 181.436 183.453 181.997 183.796C182.558 184.17 182.823 184.591 182.807 185.09C182.807 185.168 182.807 185.246 182.792 185.339C182.667 186.851 181.654 187.568 179.706 187.536C179.597 187.552 179.488 187.521 179.379 187.505C179.02 187.459 178.631 187.272 178.241 187.069C177.742 186.757 177.4 186.523 177.228 186.336C177.057 186.149 176.948 186.009 176.854 185.916L176.698 185.744C175.732 184.747 174.891 184.217 174.236 184.217C173.691 184.201 173.114 184.466 172.553 184.981C171.602 185.884 171.135 186.664 171.104 187.334C171.119 187.786 171.384 188.362 171.945 189.079L172.241 189.453C172.413 189.687 172.693 190.046 173.114 190.404C173.348 190.622 173.597 190.84 173.878 191.043C174.096 191.199 174.361 191.386 174.61 191.542C175.171 191.9 175.919 192.212 176.823 192.477C177.774 192.757 178.724 192.913 179.737 192.913C180.735 192.929 181.685 192.82 182.667 192.539C183.618 192.259 184.553 191.853 185.504 191.277C186.407 190.7 187.155 189.874 187.748 188.783C188.34 187.723 188.636 186.492 188.667 185.09C188.683 183.859 188.48 182.799 188.106 181.91Z" fill="#3333CB"/>
<path d="M218.045 170.144C217.92 169.801 217.749 169.552 217.468 169.427C217.219 169.271 217.001 169.193 216.798 169.146C216.611 169.131 216.284 169.115 215.848 169.1L208.227 168.959L197.598 168.772C197.146 168.772 196.819 168.772 196.601 168.804C196.414 168.85 196.18 168.913 195.899 169.053C195.635 169.178 195.448 169.396 195.323 169.754C195.229 170.082 195.151 170.534 195.151 171.11C195.136 171.671 195.183 172.139 195.276 172.497C195.401 172.856 195.572 173.089 195.822 173.214C196.102 173.339 196.32 173.448 196.538 173.463C196.725 173.51 197.068 173.541 197.473 173.541L201.011 173.604L203.77 173.65L203.489 190.139C203.473 190.637 203.489 191.027 203.52 191.261C203.551 191.51 203.645 191.806 203.801 192.134C203.972 192.461 204.253 192.663 204.642 192.819C205.048 192.975 205.577 193.037 206.263 193.037C206.949 193.053 207.494 193.006 207.931 192.882C208.336 192.757 208.632 192.523 208.803 192.227C208.959 191.915 209.068 191.635 209.115 191.385C209.131 191.136 209.177 190.778 209.193 190.263L209.442 173.744L215.723 173.869L216.705 173.837C216.907 173.806 217.141 173.713 217.406 173.588C217.686 173.448 217.874 173.214 217.998 172.887C218.092 172.559 218.154 172.092 218.17 171.546C218.185 170.97 218.138 170.502 218.045 170.144Z" fill="#3333CB"/>
<path d="M46.2402 107.15C46.2402 109.893 44.0163 112.117 41.2734 112.117C38.5306 112.117 36.3066 109.893 36.3066 107.15C36.3066 104.407 38.5306 102.183 41.2734 102.183C44.0163 102.183 46.2402 104.407 46.2402 107.15Z" fill="white"/>
<path d="M61.7372 107.15C61.7372 109.893 59.5134 112.117 56.7705 112.117C54.0276 112.117 51.8037 109.893 51.8037 107.15C51.8037 104.407 54.0276 102.183 56.7705 102.183C59.5134 102.183 61.7372 104.407 61.7372 107.15Z" fill="#FF4B00"/>
<path d="M78.4277 107.15C78.4277 109.893 76.2038 112.117 73.4609 112.117C70.7181 112.117 68.4941 109.893 68.4941 107.15C68.4941 104.407 70.7181 102.183 73.4609 102.183C76.2038 102.183 78.4277 104.407 78.4277 107.15Z" fill="#FF96D3"/>
<path d="M235.074 12.3402C209.38 14.0108 189.904 36.1937 191.575 61.8878C192.506 76.2177 199.822 88.6073 210.564 96.479L194.168 123.541L221.684 102.498C227.704 104.767 234.287 105.833 241.124 105.389C266.818 103.718 286.294 81.5351 284.623 55.841C282.951 30.1454 260.768 10.6695 235.074 12.3402Z" fill="white"/>
<path d="M241.221 40.6436H239.251V78.7646H241.221V40.6436Z" fill="#3333CB"/>
<path d="M240.234 82.7185C239.386 82.7185 238.7 82.0327 238.7 81.185V38.3309C238.7 37.4831 239.386 36.7974 240.234 36.7974C241.082 36.7974 241.767 37.4847 241.767 38.3309V81.185C241.767 82.0327 241.082 82.7185 240.234 82.7185Z" fill="#3333CB"/>
<path d="M249.113 77.3773C248.265 77.3773 247.579 76.6917 247.579 75.8439V43.5638C247.579 42.716 248.265 42.0303 249.113 42.0303C249.96 42.0303 250.646 42.7176 250.646 43.5638V75.8439C250.646 76.6917 249.96 77.3773 249.113 77.3773Z" fill="#3333CB"/>
<path d="M230.314 77.3773C229.466 77.3773 228.78 76.6917 228.78 75.8439V43.5638C228.78 42.716 229.468 42.0303 230.314 42.0303C231.162 42.0303 231.847 42.7176 231.847 43.5638V75.8439C231.847 76.6917 231.162 77.3773 230.314 77.3773Z" fill="#3333CB"/>
<path d="M257.99 73.5089C257.142 73.5089 256.456 72.8232 256.456 71.9754V47.4315C256.456 46.5837 257.142 45.8979 257.99 45.8979C258.837 45.8979 259.523 46.5837 259.523 47.4315V71.9754C259.525 72.8232 258.837 73.5089 257.99 73.5089Z" fill="#3333CB"/>
<path d="M221.958 73.5089C221.111 73.5089 220.425 72.8232 220.425 71.9754V47.4315C220.425 46.5837 221.111 45.8979 221.958 45.8979C222.806 45.8979 223.492 46.5837 223.492 47.4315V71.9754C223.493 72.8232 222.806 73.5089 221.958 73.5089Z" fill="#3333CB"/>
<path d="M265.824 68.5985C264.977 68.5985 264.291 67.9128 264.291 67.065V52.3455C264.291 51.4977 264.977 50.812 265.824 50.812C266.672 50.812 267.358 51.4977 267.358 52.3455V67.065C267.358 67.9112 266.672 68.5985 265.824 68.5985Z" fill="#3333CB"/>
<path d="M213.079 68.5985C212.232 68.5985 211.546 67.9128 211.546 67.065V52.3455C211.546 51.4977 212.232 50.812 213.079 50.812C213.927 50.812 214.613 51.4977 214.613 52.3455V67.065C214.613 67.9112 213.927 68.5985 213.079 68.5985Z" fill="#3333CB"/>
<path d="M159.869 297.671L150.955 303.5L137.646 312.211L10.1494 319.708V298.357L133.796 288.04L134.124 288.009L149.303 293.713L159.869 297.671Z" fill="#FFC410"/>
<path d="M135.433 305.915C135.433 306.102 135.292 306.274 135.09 306.289L132.254 306.476L10.1494 314.705V313.988L131.942 305.775L135.043 305.572C135.277 305.572 135.417 305.713 135.433 305.915Z" fill="#3333CB"/>
<path d="M134.747 294.663C134.763 294.85 134.607 295.022 134.42 295.037L131.786 295.256L10.1494 305.136V304.419L131.209 294.57L134.357 294.321C134.56 294.289 134.731 294.461 134.747 294.663Z" fill="#3333CB"/>
<path d="M131.125 294.764L133.799 288.035L134.127 288.015L149.301 293.715L159.874 297.677L150.958 303.506L137.649 312.216L131.808 306.012L136.43 298.729L131.125 294.764Z" fill="white"/>
<path d="M149.3 293.716L159.872 297.679L150.956 303.506C149.557 300.607 148.957 297.314 149.264 294.105C149.276 293.975 149.287 293.845 149.3 293.716Z" fill="#3333CB"/>
<path d="M291.498 161.91L294.565 162.808C295.289 163.02 295.298 164.042 294.576 164.265L291.584 165.193C286.734 166.693 282.886 170.412 281.22 175.209L279.829 179.215C279.586 179.915 278.588 179.89 278.381 179.18L277.441 175.971C275.911 170.744 271.825 166.656 266.598 165.127L263.601 164.25C262.871 164.036 262.871 163.003 263.601 162.789L266.598 161.912C271.825 160.383 275.911 156.295 277.441 151.068L278.319 148.071C278.532 147.342 279.565 147.342 279.779 148.071L280.656 151.068C282.184 156.294 286.271 160.38 291.498 161.91Z" fill="white"/>
<path d="M53.9352 267.604L56.3103 268.299C56.8698 268.463 56.8761 269.254 56.3181 269.427L54.0007 270.144C50.2449 271.307 47.2667 274.185 45.9763 277.899L44.8994 281C44.7108 281.543 43.9394 281.522 43.7789 280.972L43.0511 278.488C41.8667 274.441 38.703 271.276 34.6557 270.093L32.3352 269.413C31.7711 269.248 31.7711 268.449 32.3352 268.283L34.6557 267.604C38.703 266.419 41.8667 263.254 43.0511 259.209L43.7305 256.888C43.8957 256.324 44.6952 256.324 44.8604 256.888L45.5399 259.209C46.7243 263.256 49.8895 266.421 53.9352 267.604Z" fill="white"/>
<path d="M140.412 317.474L142.787 318.169C143.347 318.333 143.355 319.125 142.797 319.298L140.479 320.015C136.723 321.177 133.745 324.056 132.455 327.769L131.378 330.871C131.189 331.413 130.418 331.393 130.257 330.843L129.53 328.359C128.345 324.311 125.182 321.146 121.134 319.963L118.814 319.284C118.25 319.119 118.25 318.319 118.814 318.154L121.134 317.474C125.182 316.29 128.345 313.125 129.53 309.079L130.209 306.759C130.374 306.194 131.174 306.194 131.339 306.759L132.018 309.079C133.2 313.126 136.365 316.292 140.412 317.474Z" fill="white"/>
<path d="M293.474 314.027L295.849 314.722C296.409 314.885 296.415 315.677 295.857 315.85L293.54 316.567C289.784 317.73 286.806 320.608 285.515 324.322L284.438 327.423C284.25 327.964 283.478 327.945 283.318 327.395L282.59 324.911C281.406 320.864 278.242 317.7 274.195 316.516L271.874 315.836C271.31 315.671 271.31 314.871 271.874 314.706L274.195 314.027C278.242 312.842 281.406 309.677 282.59 305.631L283.27 303.311C283.435 302.747 284.234 302.747 284.399 303.311L285.079 305.631C286.262 309.677 289.427 312.842 293.474 314.027Z" fill="white"/>
</svg>
